<?xml version="1.0" encoding="utf-8"?>
<!-- Generator: Adobe Illustrator 22.0.1, SVG Export Plug-In . SVG Version: 6.00 Build 0)  -->
<svg version="1.1" id="Layer_1" xmlns="http://www.w3.org/2000/svg" xmlns:xlink="http://www.w3.org/1999/xlink" x="0px" y="0px"
	 viewBox="0 0 400 400" style="enable-background:new 0 0 400 400;" xml:space="preserve">
<g>
	<g>
		<g>
			<g>
				<g>
					<path d="M255.1,267.1L255.1,267.1C255.1,267.1,255.1,267.1,255.1,267.1z"/>
					<path d="M253.9,245.2l0.1,0.2C254,245.3,253.9,245.2,253.9,245.2z"/>
					<path d="M254.7,280.3L254.7,280.3c0,0.2-0.1,0.4-0.1,0.9L254.7,280.3z"/>
					<path d="M242.5,199.6l0.1,0.3C242.6,199.7,242.5,199.6,242.5,199.6z"/>
					<path d="M250.5,226.3c-0.1-0.1-0.1-0.2-0.2-0.3C250.3,226.2,250.4,226.3,250.5,226.3z"/>
					<path d="M251.6,287l0.2-0.4C251.7,286.7,251.6,286.8,251.6,287z"/>
					<path d="M251.1,300.2L251.1,300.2C251.1,300.1,251.1,300.1,251.1,300.2z"/>
					<path d="M252.4,295.1c0-0.1,0-0.2,0-0.4C252.4,294.9,252.4,295.1,252.4,295.1z"/>
					<path d="M252.4,294.6v0.2C252.4,294.7,252.4,294.6,252.4,294.6z"/>
					<path d="M118.8,91.6c-0.4,0-0.7,0.2-1.1,0.4L118.8,91.6z"/>
					<path d="M222.4,161.9h0.1C222.4,161.9,222.4,161.9,222.4,161.9z"/>
					<path d="M118.4,93.3h-0.3C118.2,93.3,118.3,93.3,118.4,93.3z"/>
					<path d="M251.4,280.1c-0.2-0.4,0.1-1.2-0.1-1.2C251.3,279.3,251.2,279.9,251.4,280.1z"/>
					<path d="M211.5,158.8l-0.2-0.2C211.4,158.7,211.4,158.8,211.5,158.8z"/>
					<path d="M118.4,93.3h0.3l-0.1-0.1C118.6,93.2,118.5,93.3,118.4,93.3z"/>
					<path d="M193.4,128.2L193.4,128.2h0.1H193.4z"/>
					<path d="M191.9,126.4c0.1,0.1,0.3,0.2,0.4,0.3C192.1,126.5,192,126.4,191.9,126.4z"/>
					<path d="M117.7,91.9l-0.6,0.2C117.3,92.1,117.5,92,117.7,91.9z"/>
					<path d="M171.8,110.7c0.1,0,0.1,0.1,0.2,0.1C171.9,110.7,171.8,110.7,171.8,110.7z"/>
					<path d="M250.8,228.1c0,0.1,0,0.1,0,0.2C250.8,228.3,250.9,228.3,250.8,228.1z"/>
					<path d="M241.3,212.8L241.3,212.8L241.3,212.8z"/>
					<path d="M241.8,213.6c0-0.3-0.3-0.6-0.5-0.8C241.4,213.1,241.5,213.3,241.8,213.6z"/>
					<path d="M240.8,210.9v0.1C240.8,211,240.8,211,240.8,210.9z"/>
					<path d="M245.5,228.6L245.5,228.6L245.5,228.6L245.5,228.6z"/>
					<path d="M244.6,225.1c0-0.1,0-0.2,0-0.3C244.6,224.9,244.6,225,244.6,225.1z"/>
					<path d="M237.1,202.6L237.1,202.6L237.1,202.6L237.1,202.6z"/>
					<path d="M220.5,172.9c1.9,2.9,4.5,6.4,6,9.5c0.7,0.5,1.2,1.4,1.8,2.3l-0.4,0.3c0,0,0.1,0.2,0.3,0.4c0.1,0.2,0.3,0.4,0.3,0.4
						c0,0.4-0.4-0.6-0.3,0.1l0.4,0.2c-0.1,0.1,0.9,2.1-0.1,0.9l1.6,3.1c0.3,0.7,0.6,0.2,0.9,1c-0.1,0.2-0.2-0.2-0.4-0.1
						c0.8,2.5,2.1,2.3,2.9,4.5l-0.1-0.2c0.3,0.3,0.6,1,0.7,1c0.3-0.5-0.4-0.3-0.5-1.1c0.4-0.1,0.6,0.7,0.9,0.6
						c0.1,0.6,0.4,0.8,0.7,1.2c0.1,0.9,0.7,1.9,0.7,2.6c0.3,0.3,0.8,0.6,1.2,1.4c-0.1,0.7-0.4,0-0.2,0.8h0.3c0.2,0.7,0.1,0.6,0,0.6
						c0.3,0.7,0.6,0.5,0.8,1.4l-0.4-0.4c0.3,0.6,0.4,0.9,0.7,1.8c-0.1,0-0.3-0.3-0.3-0.6c-0.2,0.6,0.5,0.8,0.5,1.1
						c0.1-0.1-0.1-0.8,0.2-0.5c0.1,0.5,0.7,0.8,0.5,1.3l-0.4-0.4c0.5,0.9,0.5,0.4,0.8,1.5c0-0.1-0.1,0-0.1,0c0.6,0.6,0.6,1.6,1,2.6
						l-0.1-0.2c0.2,0.4,0.5,0.5,0.6,0.8c-0.1-0.6,0.1-0.5,0.3-0.6c-0.1,0.9,0.9,1,1,2.4c-0.1,0-0.4-0.2-0.4-0.6
						c-0.6-0.3-0.9-0.2-1.4-0.9c0.3,0.4,0.5,1,0.3,0.9h0.4c0.1,0.3,0.2,0.5,0.2,0.7c0.3,0,0.2-0.7,0.6-0.1c0.4,0.7-0.3,0.5,0,0.6
						c0.5,1,0.5,0.3,0.7,1.4c-0.1-0.1-0.2-0.3-0.2-0.4c0.1,0.8,0.6,1.8,0.3,2.1c-0.1-0.1-0.3-0.1-0.3-0.3h0.1
						c-0.6-0.7,0.3,0.6-0.2,0.5c0.2-0.1,0.5,0.9,0.6,1.4l0.2-0.2c1.3,1.3-0.6,0.1,0,1.6c0.5,0.9,0-0.4,0.3,0.1c0.1,0.7,0,1,0.3,1.9
						c0,0.3,0,0.9-0.3,1c0.3,0.5,0.4,1.8,0.8,2c0-1.1-0.6-0.9-0.5-2.2l0.4,0.2c0.2,0.8,0.7,1.8,0.7,2.4c0-0.1,0.1-0.2,0.2-0.1
						c0.4,1.1,0.8,1.4,1,2.5c-0.2,0.2-0.4-0.5-0.5-0.9c-0.1,0.8,0.2,0.8,0.3,1.9c-0.2,0.1-0.2-0.8-0.4-0.8l0.4,1.2c0,0,0,0-0.1,0
						c0.5,0.1,0.2,1,0.5,1.7c0.4,1.8,1.1,2,1.6,2.9c-0.1,0.3-0.1,0.4-0.3,0.3c0.1-0.5,0-0.4-0.2-0.5c0.2,0.6-0.1,1.4-0.4,1.1
						c0.3,1,0.1-0.4,0.4,0.2l0.2,1.3c0.2-0.2,0.1-0.7,0.4,0c0.2,0.6,0.2,0.9,0.3,1.6c-0.1-0.1-0.3,0.3-0.4-0.3c0,0.4,0.1,1,0.4,1.1
						c0-0.9,0.5,1.3,0.7,0.7c0,0,0,0.2,0,0.4c0,0.2,0,0.4,0,0.4c0-0.2-0.2-0.2-0.2-0.5c-0.3,0.3,0.2,0.7,0.3,1c0,0.3,0.1,1.1,0,1.2
						c0.1,0.3,0.2,0.9,0,1.1c0.1,0.4,0.2,0,0.3,0.1l0.2,1.4c-0.2,0.1-0.7,0.3-0.8,0.1c0.3,0.5,0.6,0.1,0.7,0.9
						c-0.4-0.4-0.1,1.1-0.6,0.5c-0.2,0.5,0,1.7,0.2,2.4c0.3,0.4,0.1-0.8,0.4-0.8c0.3,1.9,1.2,2,1.2,3.4v-0.4
						c0.3,0.9,0.2,0.8,0.5,1.3c-0.4-0.2-0.8,1.1-0.6,2.6c0.2,0.1,0.3-0.9,0.6-0.7c0,0,0,0.2,0.1,0.5c0,0.2,0.1,0.5,0.1,0.5
						c0,0.1-0.1,0-0.1-0.2c0.2,0.9-0.3,1.7,0.1,1.9l-0.4,0.9l0.2-0.4c0.2,0.1,0.3,1.1,0.4,1.3c0.3,1,0.2,1.4,0,1.9
						c0.1-0.2,0.4-0.7,0.6,0.1c-0.6,0-0.1,1.7-0.4,1.7c0,0.3-0.1,0.9,0.1,0.9h-0.4c0.5,0,0.5,1.2,0.7,2.1c-0.7-0.2,0.1,1-0.5,1.4
						c0.5,0.1,0.3,1.6,0.7,1.7c0.1,0.7-0.4,0.6-0.5,0.8l0.2,0.3c-0.2,0.4-0.2,1.7-0.4,2.4l0.4,0.7l-0.2,0.3c0.1,0.1,0.2,0.7,0.3,0.3
						v0.4c0.5,0,0.1,0.5,0.3,1.3c-0.1,0.2-0.2,0.1-0.2,0c0,0.4-0.2,0.2-0.4,0.4c0.1-0.3,0.8,1.4,1,0.4c0.2-0.1,0.3,0.5,0.2,0.9
						l-0.4,0.2l0.4,0.5c0,0.6-0.2,0.9-0.3,1.3c0-0.5-0.8-1.1-0.8,0.2c0-0.7-0.3-1-0.3-1.4c0,0.3-0.1,0.4-0.2,0
						c0.1,1,0.2,0.3,0.3,1.3c-0.4-0.1-0.5,0.2-0.6,1.1l0.3-0.6l0.1,0.1c0-0.2,0.1-0.3,0.2-0.4c0,0.2,0.4,1.2,0.2,1.3
						c0.6-1,0.4,1.7,0.7,1.1c0.1,0.1,0.1,0.8-0.1,0.9c-0.3-0.8-0.4,0.6-0.7,0.5c0.1,0.3,0.3-0.6,0.4-0.2c0,0.5-0.2,0.8-0.4,1.1
						l-0.1-0.2l-0.2,0.8c0.2,0.1,0.4-0.7,0.4,0c-0.1,0.2,0,0.9-0.2,0.9c-0.2-0.3-0.6-0.1-0.6-0.7c0,0.5-0.1,2.1,0.3,1.5v0.6
						c0.2-0.4,0.5-1.4,0.5-0.2h-0.1l0.2,0.8l-0.2,0.3c0.1,0,0.2,0.1,0.1,0.4c-0.1,0.1-0.2,0.4-0.3,0.3c0,0.9,0.2,0.8,0.2,1
						c0,0.5-0.1,0.7-0.3,0.4c-0.1,0.7-0.1,1.9-0.4,2.3c0.1,0.9,0.1-0.2,0.3,0.4c-0.7,0.7-0.5,3-0.6,4.5c0.6-0.3,0,0.4,0.5,0.7
						c-0.1-0.3-0.6,1.4-0.6,0c0,0,0,0.2,0,0.4c0,0.2,0,0.4,0,0.4c-0.4,0.5-0.1-1.3-0.6-0.6c-0.1,0.9,0.4,1.5,0.1,2.5
						c-0.3-0.4,0,0.8-0.4,0.5c-0.1-0.2,0-0.5,0-0.8l-0.1,0.2c-0.4,1.9,0.4,0.6,0.5,1.7c-0.1,1.2-0.4,0.9-0.6,0.9
						c-0.1,0.2-0.1,0.8-0.1,1.1c-0.1-0.8,0.4-1.3,0.6-0.9c-0.5,0.5-0.3,1.7-0.1,2.1c0.7-1.6,0.2-1.2,0.9-2.7
						c-0.1-0.2-0.5-0.3-0.2-1.2c0.1,0.6,0.2,0,0.3-0.2c-0.3,0.2,0-0.7-0.1-1c0.2-0.2,0.4,0.6,0.7-0.3l-0.5-0.2
						c0.1-0.4,0.4,0.2,0.4-0.6c0.2,0.5,0.5-0.1,0.4,1c0.6-1.2,0-2-0.1-3.1c0,0.1,0.1,0.1,0.1,0.2c-0.1-0.2-0.1-0.6-0.1-0.9
						c0.2-0.7,0.2,0.6,0.4,0.4l0.1-1.1l0,0c0-0.3-0.1-0.6,0.1-0.7c0.1,0.3,0.3,0.5,0.4,0.7l-0.3-1.2c0.2,0.1,0.4-0.9,0.4-0.1
						l0.1-1.7l0.4-0.1c0-0.4-0.1-0.4-0.2,0.1c0.2-0.6-0.4-2.6,0.3-2.3c-0.2-1.4-0.1-1.8-0.2-3.4c0.3,1.3,0.5-1.4,0.6-0.1
						c0.2-0.8-0.2-0.9-0.2-1.6c0.2-0.6,0.5-0.3,0.6,0.3l-0.1-0.7h0.1l-0.2-0.6c0.2-0.7,0.4-0.1,0.5-0.8l-0.3-0.2l0.2-0.5
						c-0.2,0.2-0.2-0.2-0.2-0.7h0.1v-0.6c0.2,0.6,0.1-0.6,0.3-0.3c0-0.5,0-0.5,0-1.5l-0.2,0.2c-0.2-1.2,0.3,0,0.4-1l-0.3,0.1
						c0.4-1.4-0.2-2.4,0.1-3.5c0.1,0.6,0.4,0.5,0.3,0.4c-0.1-0.9-0.1-2.4-0.4-3.3c0.4-0.3,0.5-0.4,0.6-1.4c0-0.7-0.1-0.8-0.3-1
						c0.1-0.7-0.1-2,0.1-2c-0.2-0.2,0-0.6-0.2-1l0.1-0.1l-0.3,0.1c0.5-1.2-0.4-2,0-3.3l0.1,0.2l-0.1-0.5c0.1-0.1,0.2,0.1,0.3,0.1
						c0,0,0-0.6,0-1.2s0-1.2,0-1.2l-0.2,0.5c-0.1-0.5-0.3-0.8-0.2-1.4c0.5,0.9-0.1-0.8,0.2-1l0.1,0.5c-0.1-0.7-0.1-0.7-0.3-0.6
						c-0.2-0.9,0.4-0.7,0.1-1.5v0.6c-0.1,0.2-0.4-0.2-0.4-0.6c0-0.1,0.1-0.4,0.2-0.1c-0.2-0.7-0.1-1.8-0.3-2.1
						c0-0.4,0.2-0.3,0.3-0.1c-0.4-1.5,0-0.7-0.4-2.2h0.1l-0.2-0.5l0.2-0.8l-0.2,0.3c-0.1-0.5-0.2-0.8-0.2-1.4l0.2,0.2
						c-0.3-1.4,0.2-1.7-0.3-3c0-0.1,0.1,0.1,0.2,0.2c-0.5-1.2,0.3-1-0.3-2.2c0.1,0.1,0.1-0.1,0.2,0l-0.2-0.5h0.3l-0.5-0.4l0.2-0.4
						l-0.2-0.2c0.4-0.7-0.1-1.5,0.2-2.4l-0.3,0.2c-0.6-1-0.6-2.2-0.7-3.5c-0.1-1.3-0.2-2.6-0.6-3.8h0.3l-0.5-1
						c0.1-0.6,0.3,0.3,0.4,0.1c-0.4-1.1-0.5-0.4-0.9-1.6c0.1-0.7,0.3,0.2,0.4,0.5c-0.4-1.2-1-2.9-1-3.8c0,0-0.1-0.1-0.1,0
						c-0.3-0.8-0.4-1.9-0.7-2.7c0.1,0,0.2,0.2,0.3,0.4c-0.1-0.3-0.1-0.8-0.3-1l0.3,0.3c-0.1-0.7-0.7-1.9-0.4-2.2
						c-0.1,0.1-0.3,0.1-0.5-0.5c0.3-0.4-0.6-1.5-0.6-2.5c0.1,0.1,0.3,0.8,0.3,0.6c0-0.5-0.3-0.9-0.6-1.2l0.2,0.1l-0.8-2.1
						c0.4-0.5-0.7-2-0.3-2c-0.2-0.8,0,0.7-0.3-0.3c0.1-0.3-0.4-0.8-0.1-0.9l0.1,0.1l-0.2-0.7l0.4,0.3c-0.2-0.6-0.7-0.9-0.9-0.9
						c0-0.6-0.4-1.3-0.2-1.7l0.1,0.2c-0.3-0.8-0.3-1.5-0.4-2.1c-0.1-0.6-0.2-1.2-0.6-1.8c0-0.1,0.1-0.1,0.1,0.1l-0.3-1l0.3,0.2
						l-0.9-1.5h0.1c-0.3-1-0.9-2.7-1.5-3.9l0.1,0.2c-0.8-1.3-0.4-1.4-1-2.4c0.1,0,0.1,0.1,0.1,0.1L242,198l0.2,0.2
						c-0.6-0.6-0.4-2.2-0.5-1.6c-0.3-0.3-0.7-1-0.9-1c-0.4-1,0.1-0.3-0.1-1c-0.3-0.7-0.6-0.8-0.9-1.8h0.1c-0.2-0.5-0.5-0.7-0.8-1.3
						l0.1,0.2c-0.8-0.9-0.2-1.5-1.2-2.1c-0.1-0.5-0.6-1.3-0.3-1.4c-0.8-1.2-1.4-2.2-2.1-3.4c0.3-0.4-0.2-0.3-0.3-1.2l-0.2,0.2
						c-0.9-1.8-1.5-4.1-2.6-6l0.2-0.2l-0.5-0.3c-1-2.2-2.6-4.9-3.5-6.5c-0.4-0.5-1.2-1.1-1.6-2l0.1,0.1c-1.1-1.4-2.2-2.9-3.1-4.5
						c0.2,0,0.1-0.2,0.3,0c-0.5-0.2-0.6-0.9-0.8-1.3l0.1,0.5c-0.5-0.3-0.7-1.1-0.7-1.4l-0.7-0.5c0-0.1,0-0.2,0-0.2h-0.2v-0.6
						c-0.2-0.1-0.9-1-1.4-1.1c0-0.1-0.3-0.8,0.1-0.4l-1.7-2.6l0.2,0.5c-0.2,0.2-0.8-0.5-1-0.9c0.5,0.4,0.3-0.2,0.3-0.5
						c-0.4-0.3,0,0.4-0.2,0.3c-0.5-0.3-1.2-1.2-1.3-1.5l0.3,0.2c-0.5-0.5-0.4-1-0.8-1.6c-0.5-0.4-0.7-0.9-1-0.5
						c-0.6-0.7,0-0.5-0.1-0.7c-0.4-0.2-1.1-1.3-1-1.6c-0.8,0-1.4-2.1-1.9-1.9l-0.2-0.8c-0.1,0.1-0.5,0.2-0.9-0.3
						c-0.2-0.5,0-0.6,0-0.8h-0.7c-0.8-1.5-2.1-3-3.3-4.5c-1.3-1.5-2.6-3-3.7-4.5c-1.2-1.1-2.8-2.4-4.1-3.9l0.2,0.1
						c0,0-0.3-0.4-0.6-0.7c-0.3-0.4-0.6-0.7-0.6-0.7l0.8,1.1c-0.3-0.2-0.6-0.4-0.9-0.7c-1.3-1.6-3.1-3.8-5.2-5.3
						c-1.6-0.7-0.4-1.1-1.9-1.9c0.1,0,0.2,0,0.4,0.1c-1.4-1-2.1-1.6-3.7-2.4c0.6-0.3-0.9-0.7-0.5-0.9l-0.3,0.1c-0.2-0.4-0.8-1-0.6-1
						l-0.8-0.2l0.1-0.2c-0.8-0.7-2.5-1.9-2.6-2.6c-1.1-0.6-2.4-1.5-3.7-2.6c-1.3-1-2.7-2.2-3.9-3.1c-0.5-0.1-1.2-0.6-1.8-1l-0.4-0.7
						c-0.6-0.3-1.5-0.5-1.9-1h0.1c-0.6-0.4-1.1-0.9-1.9-1c-0.7-0.5-1.2-1-0.9-1.1c-0.3,0.4-1.4-1-1.4-1s-0.5-0.4-1.5-1
						c-0.9-0.7-2.3-1.5-4-2.6c-3.4-2.2-8.1-5-13.5-7.5s-11.5-4.5-17-5.3c-5.5-0.9-10.4-0.3-12.9,0.6c-0.3,0.3-1.3,0.5-0.9,0.8
						c-0.7,0.2-1.1-0.2-1.2,0c1,0.1-0.2,0.7,0.8,0.9l-0.6,0.1c-0.1,0.2,0.8-0.3,0.7,0.1l0.1-0.5c0.5,0,0.8,0.1,1,0.2
						c0.4-0.2,0.7-0.9,1.9-0.7h-0.3c0.9,0,0.6,0.3,0.8,0.4h-0.2l0.8,0.2c-0.6-0.1-1.5,0.3-1,0.2c1.1,0.1-0.3-0.1,0.5-0.2
						c0.5,0,0.4,0.2,0.3,0.4c0,0,0.2,0,0.5,0c0.2,0,0.5,0,0.5,0c0,0.2-0.6,0-0.2,0.2c0,0,0.3-0.1,0.6-0.1c0.3,0,0.6-0.1,0.6-0.1
						c0.2,0.6,1.2-0.2,1.7,0.3c-0.8,0.1,0.1,0.2-0.1,0.4l2,0.1c0.2,0.1-0.5,0.1-0.2,0.1c0.4,0.2,0.6-0.1,0.8-0.1
						c0.2,0.2,1.5,0.2,1.4,0.6c1.3,0.4,0.6-0.4,1.8,0c0.1,0.2-1-0.1-0.5,0.2l1.3,0.2c-0.1,0.1-0.3,0.3-0.8,0.2
						c3.4,1,4.8,2.6,7.8,3.3c0.3,0.4-0.4,0.1-0.7,0.1c2.3,0.4,2.8,1.6,4.6,2.3l0.1-0.2c2.2,1.6,5.3,2.6,7.8,4.3l-0.3-0.3
						c0.5,0,1.1,0.3,1.6,0.5c0,0.1-0.5,0.2,0.3,0.6c-0.1-0.2-0.4-0.4-0.3-0.4c2.1,1.7,6.9,4.5,10.4,7c2.5,1.6,5,3.2,7.4,5.1
						c1.2,0.9,2.4,1.8,3.6,2.7s2.3,1.8,3.5,2.7c-0.7-0.5-0.1-0.7,0.4-0.2c0.4,0.9,1.1,1.4,1.7,1.8c0.7,0.4,1.3,0.9,1.8,1.7
						c1.4,1,2.5,2.1,3.6,3.1c1.1,1.1,2.2,2.1,3.6,2.9l-0.1,0.2c0.3,0.4,0.5,0.4,0.9,0.7h-0.1c0.8,0.8,2,1.6,2.4,2.2l0.2-0.2
						c0.5,0.5,0.1,0.4,0.7,0.8l-0.1,0.1l0.8,0.4c-0.4,0.3,1.4,1.4,1.6,1.9c0.7,0.5,2,1.6,2.9,2.7c0,0.4,1.1,1.6,1.8,2.4
						c1.5,1.4,3.4,3.6,5.1,5.6l0.2-0.2l0.5,0.5c-0.1,0,0,0.1-0.1,0.1c0.1,0.6,1.1,1.1,1.3,1.7c0-0.5-0.3-0.4-0.5-0.7
						c-0.2-0.5,0.3-0.3,0.7,0.4h-0.1l0.5,0.3c-0.2,0.2,0,0.6-0.1,0.9c1.4,1.7,2.8,2.6,4.1,4.5c-0.4,0,1.1,1.3,0.4,1.2
						c1,1,0.2-0.4,0.8-0.1c0.2,0.3,0.6,0.6,0.5,0.7c-0.2-0.1-0.1,0.4-0.3,0.2l0.6,0.7c0,0.1-0.2,0-0.2-0.1c1.4,1.3,1.7,2.9,2.9,4.1
						c0.2,0-0.3-0.6-0.1-0.6c1.3,1.2,0.6,1.4,1.7,2.6l-0.4-0.1c0.4,0.3,0.7,0.4,1.1,1.2c-0.2,0.3-0.6-0.5-1-0.7
						c0.3,0.5,1.2,1.6,1.2,1.1c0.5,0.5,0.4,0.9,0.5,1.2c0.1,0-0.2-0.7,0.1-0.4c0.4,0.9,1.2,2.1,1.8,3.1c-0.1,0-0.1,0.2-0.2,0.1
						C220.3,171.6,219.7,171.9,220.5,172.9z"/>
					<path d="M245.6,229.1l-0.1-0.5c-0.1,0-0.1,0-0.3-0.2L245.6,229.1z"/>
					<path d="M239.4,207.7l-0.1-0.1C239.3,207.7,239.3,207.7,239.4,207.7z"/>
					<path d="M237,202.8c0.2,0.3,0.1,0,0.1-0.2C237,202.6,237,202.7,237,202.8z"/>
					<path d="M248.9,241.3c0-0.1-0.1-0.1-0.1-0.1C248.8,241.3,248.9,241.4,248.9,241.3z"/>
					<path d="M251.5,276.2v-0.1C251.5,276.1,251.5,276.1,251.5,276.2z"/>
					<path d="M252,274.2c0-0.1,0-0.2,0-0.4C251.9,274,251.9,274.2,252,274.2z"/>
					<path d="M247.2,233c0-0.1-0.1-0.2-0.2-0.3C247.1,232.9,247.1,233,247.2,233z"/>
					<path d="M251.8,273.5V273c0,0,0,0-0.1,0L251.8,273.5z"/>
					<path d="M251.5,276.8c0-0.2,0-0.4,0.1-0.6C251.4,276.4,251.4,276.6,251.5,276.8z"/>
					<path d="M251,254L251,254C250.9,253.6,250.9,253.8,251,254z"/>
					<path d="M251.3,271.3L251.3,271.3l-0.1-0.2L251.3,271.3z"/>
					<path d="M251.3,278.9c0-0.1,0-0.2,0-0.2C251.2,278.7,251.2,278.8,251.3,278.9C251.2,278.9,251.3,278.9,251.3,278.9z"/>
					<path d="M251.2,261.4c0.1,0.1,0.2,0.2,0.2,0.2C251.4,261.4,251.4,261.3,251.2,261.4z"/>
				</g>
			</g>
		</g>
	</g>
</g>
<g>
	<g>
		<g>
			<g>
				<g>
					<path d="M258.9,279.4c0,0-0.1,0-0.1-0.1C258.8,279.4,258.8,279.4,258.9,279.4z"/>
					<path d="M255.3,286.9v-0.1C255.2,286.9,255.2,286.9,255.3,286.9z"/>
					<path d="M261,274.9C261,275,261,275,261,274.9c0.1,0,0.1-0.1,0.2-0.3L261,274.9z"/>
					<path d="M249.9,300.8L249.9,300.8L249.9,300.8z"/>
					<path d="M252.7,293.6c0,0,0,0.1,0,0.2C252.8,293.7,252.8,293.7,252.7,293.6z"/>
					<path d="M264.6,273.6l-0.2,0.1C264.4,273.7,264.5,273.7,264.6,273.6z"/>
					<path d="M265.8,268.7C265.8,268.7,265.7,268.7,265.8,268.7C265.7,268.7,265.8,268.7,265.8,268.7z"/>
					<path d="M264.3,270.2c0,0,0,0.1,0,0.2C264.3,270.3,264.4,270.2,264.3,270.2z"/>
					<path d="M264.3,270.4L264.3,270.4L264.3,270.4z"/>
					<path d="M227.7,261.1c-0.1-0.1-0.3,0-0.5,0H227.7z"/>
					<path d="M248.8,300.9l0.1-0.1C248.8,300.9,248.8,300.9,248.8,300.9z"/>
					<path d="M226.8,262.4L226.8,262.4C226.7,262.4,226.8,262.4,226.8,262.4z"/>
					<path d="M264.1,276.2c0.1,0.2-0.2,0.4,0,0.5C264.1,276.5,264.3,276.4,264.1,276.2z"/>
					<path d="M242.4,304.5l-0.1-0.2C242.4,304.4,242.4,304.4,242.4,304.5z"/>
					<path d="M226.8,262.4L226.8,262.4C226.9,262.5,226.9,262.4,226.8,262.4L226.8,262.4z"/>
					<path d="M245.1,288.6L245.1,288.6L245.1,288.6L245.1,288.6z"/>
					<path d="M245.1,287.7c0,0.1,0.1,0.1,0.1,0.2C245.2,287.7,245.1,287.7,245.1,287.7z"/>
					<path d="M227.2,261.1h-0.3C227,261.1,227.1,261.1,227.2,261.1z"/>
					<path d="M241.4,278.8C241.5,278.8,241.5,278.8,241.4,278.8C241.5,278.8,241.5,278.8,241.4,278.8z"/>
					<path d="M253,293C253,293,253.1,293,253,293C253,293,253,292.9,253,293z"/>
					<path d="M255.9,300.7L255.9,300.7L255.9,300.7z"/>
					<path d="M255.7,300.3c-0.1,0.1,0,0.3,0.1,0.4C255.9,300.6,255.9,300.5,255.7,300.3z"/>
					<path d="M255.6,301.4L255.6,301.4L255.6,301.4z"/>
					<path d="M257.9,294.9L257.9,294.9L257.9,294.9z"/>
					<path d="M257.6,296.2c0,0-0.1,0-0.1,0.1C257.5,296.2,257.5,296.2,257.6,296.2z"/>
					<polygon points="254.6,306.9 254.5,306.9 254.5,306.9 					"/>
					<path d="M245.1,316.4c0.3-0.1,0.6-0.2,0.9-0.3c0.3-0.1,0.4-0.2,0.7-0.2c0.2-0.1,0.4-0.1,0.6-0.1c0,0,0.4,0,0.6-0.1
						c0.2,0,0.4,0,0.6-0.1c0.4-0.4,0.8-0.6,1.2-0.8l0.1,0.6l0.3-0.3c0.1,0.1-0.2,0.2,0,0.3l0.1-0.4c0,0.2,0.8-0.3,0.3,0.4
						c0,0,1.2-0.7,1.1-0.7c0.2-0.2,0-0.7,0.3-0.7c0.1,0.2-0.1,0.2,0,0.4c0.4-0.1,0.6-0.6,0.7-1.2c0-0.3,0.1-0.6,0.1-0.9
						c0.1-0.2,0.2-0.5,0.3-0.8v0.2c0-0.4,0.2-0.7,0.2-0.8c-0.3-0.6,0,0.6-0.3,0.5c-0.2-0.6,0.1-0.8-0.1-1.2c0.2-0.1,0.1-0.5,0.2-0.8
						c0.3,0,0.5-0.8,0.8-0.7c0-0.2,0-0.5-0.1-0.7c0-0.3,0-0.5,0-0.8c0.4,0,0.2,0.5,0.4,0.1l-0.2-0.4c0.1-0.4,0.2-0.2,0.3-0.1
						c0.1-0.5-0.2-0.7,0.1-1.1l0.1,0.5c0-0.5,0.1-0.7,0.3-1.2c0.1,0.1,0,0.4,0,0.5c0.4,0,0-0.7,0.1-0.8c-0.1,0-0.3,0.3-0.4,0
						c0.1-0.3-0.1-0.8,0.2-0.8l0.1,0.5c0-0.7-0.2-0.5,0.1-1.1l0.1,0.1c-0.2-0.6,0.3-1,0.5-1.6v0.1c0-0.2-0.2-0.3-0.2-0.4
						c-0.2,0.2-0.3,0.1-0.5,0.1c0.5-0.2-0.3-0.6,0-1c0.1,0,0.3,0.2,0.1,0.3c0.4,0.3,0.7,0.4,0.8,0.8c0-0.2,0-0.4,0.1-0.3l-0.4-0.2
						c0-0.1,0.1-0.2,0.1-0.3c-0.2-0.1-0.5,0.1-0.5-0.2c0-0.3,0.4,0,0.3-0.1c0-0.4-0.4-0.3-0.1-0.6c0,0,0.1,0.1,0,0.2
						c0.2-0.2,0.1-0.7,0.6-0.6c0.1,0.1,0.2,0.1,0.2,0.2h-0.1c0.2,0.4,0-0.3,0.4-0.1c-0.3-0.1-0.1-0.4,0-0.6h-0.3
						c-0.7-0.8,0.5,0.2,0.6-0.4c-0.1-0.4-0.1,0.1-0.2-0.2c0.1-0.2,0.4-0.2,0.4-0.6c0.1-0.1,0.4-0.2,0.7-0.1
						c-0.1-0.3,0.3-0.6,0.1-0.8c-0.4,0.3,0.2,0.5-0.3,0.8l-0.3-0.2c0.1-0.3,0.1-0.7,0.3-0.9c-0.1,0-0.2,0-0.2,0c0-0.5-0.2-0.7,0-1.1
						c0.3,0,0.2,0.3,0.1,0.4c0.3-0.2,0.1-0.3,0.3-0.7c0.3,0.1-0.1,0.3,0.1,0.4l0.1-0.5l0,0c-0.4-0.2,0.1-0.3,0.1-0.7
						c0.2-0.7-0.3-0.9-0.5-1.4c0.1-0.1,0.3-0.1,0.3,0c-0.2,0.1-0.1,0.1,0,0.2c0-0.2,0.6-0.4,0.7-0.2c0-0.4-0.3,0.1-0.3-0.2l0.2-0.5
						c-0.2,0-0.3,0.1-0.4-0.2c0-0.2,0.1-0.3,0.2-0.6c0.1,0.1,0.3,0,0.3,0.2c0.1-0.1,0.2-0.3,0-0.5c-0.3,0.2,0-0.6-0.4-0.4l0.3-0.2
						c0,0.1,0.1,0.1,0,0.2c0.3,0,0-0.3,0-0.4c0.1-0.1,0.2-0.4,0.3-0.3c-0.1-0.1,0.1-0.3,0.3-0.3c0-0.2-0.2-0.1-0.3-0.2l0.2-0.5
						c0.2,0,0.7,0.2,0.7,0.3c-0.1-0.2-0.5-0.2-0.4-0.5c0.3,0.3,0.4-0.3,0.7,0.1c0.3-0.1,0.4-0.5,0.4-0.8c-0.2-0.2-0.2,0.2-0.5,0.1
						c0.1-0.7-0.6-1-0.3-1.5l-0.1,0.1c0-0.4,0-0.3-0.2-0.6c0.3,0.2,1,0,1.2-0.6c-0.2-0.1-0.4,0.2-0.7,0l0.1-0.4c0,0,0.1,0,0.1,0.1
						c0-0.4,0.6-0.4,0.3-0.7l0.6-0.1h-0.3c-0.2-0.1-0.1-0.5-0.1-0.6c-0.1-0.4,0.1-0.5,0.4-0.6c-0.2,0-0.5,0.1-0.5-0.2
						c0.5,0.2,0.4-0.5,0.7-0.4c0-0.1,0.3-0.3,0.1-0.4l0.3,0.1c-0.5-0.2-0.3-0.6-0.3-1c0.6,0.3,0.1-0.4,0.7-0.3
						c-0.4-0.2,0-0.6-0.3-0.8c0.1-0.3,0.5-0.1,0.6-0.1l-0.1-0.2c0.3,0,0.5-0.5,0.7-0.7l-0.3-0.4h0.2c-0.1-0.1-0.1-0.3-0.3-0.2
						l0.1-0.1c-0.4-0.2,0-0.2-0.1-0.6c0.1,0,0.2,0,0.2,0.1c0.1-0.1,0.2,0,0.4,0c-0.1,0.1-0.6-0.8-0.9-0.5c-0.2,0-0.2-0.3-0.1-0.4
						l0.4,0.1l-0.3-0.3c0-0.2,0.3-0.2,0.4-0.4c0,0.2,0.6,0.7,0.7,0.2c0,0.3,0.1,0.5,0.1,0.6c0.1-0.1,0.1-0.1,0.2,0.1
						c0-0.4-0.2-0.2-0.1-0.6c0.3,0.2,0.5,0.1,0.7-0.2l-0.3,0.1l-0.1-0.1c-0.1,0.1-0.1,0.1-0.3,0c0-0.1-0.3-0.6,0-0.5
						c-0.7,0.1-0.2-0.8-0.6-0.7c-0.1-0.1,0-0.3,0.2-0.3c0.1,0.4,0.5-0.1,0.7,0.1c-0.1-0.1-0.3,0.1-0.4-0.1c0-0.2,0.3-0.2,0.4-0.3
						v0.1l0.3-0.2c-0.1-0.1-0.4,0.1-0.4-0.1c0.1,0,0.1-0.3,0.2-0.3c0.2,0.2,0.5,0.2,0.5,0.5c0-0.2,0.2-0.7-0.2-0.7l0.1-0.2
						c-0.2,0.1-0.6,0.3-0.5-0.1h0.1l-0.1-0.4l0.2-0.1c-0.1,0-0.1-0.1-0.1-0.2c0.1,0,0.2-0.1,0.3,0c0.1-0.3-0.1-0.4-0.2-0.4
						c0-0.2,0.1-0.2,0.3-0.1c0.1-0.2,0.3-0.7,0.5-0.7c0-0.4-0.1,0-0.2-0.2c0.7,0,0.7-1,0.8-1.5c-0.6-0.1,0-0.2-0.4-0.5
						c0.1,0.2,0.6-0.3,0.6,0.2l0.1-0.3c0.4-0.1,0,0.5,0.5,0.4c0.1-0.3-0.4-0.8,0-1c0.3,0.3,0-0.3,0.4-0.1c0.1,0.1,0,0.2,0,0.3h0.1
						c0.4-0.6-0.3-0.4-0.4-0.8c0.1-0.4,0.4-0.2,0.6-0.2c0.1,0,0.1-0.3,0.1-0.4c0.1,0.3-0.4,0.4-0.6,0.2c0.5,0,0.3-0.6,0.2-0.8
						c-0.7,0.4-0.2,0.4-0.9,0.8c0.1,0.1,0.5,0.3,0.2,0.5c-0.1-0.3-0.2-0.1-0.3,0c0.2,0,0,0.3,0,0.4c-0.2,0-0.4-0.4-0.6-0.1l0.5,0.3
						c-0.1,0.1-0.3-0.2-0.3,0.1c-0.2-0.3-0.4-0.1-0.3-0.5c-0.6,0.3-0.1,0.8,0,1.2l-0.1-0.1c0.1,0.1,0,0.3,0,0.4
						c-0.2,0.2-0.1-0.3-0.3-0.3l-0.1,0.4l0,0c0,0.1,0,0.2-0.1,0.2c-0.1-0.2-0.3-0.3-0.4-0.4l0.2,0.5c-0.1-0.1-0.4,0.2-0.4-0.1
						l-0.2,0.6l-0.4-0.1c0,0.2,0.1,0.2,0.2,0c-0.2,0.2,0.2,1.1-0.4,0.8c0.1,0.6-0.1,0.7-0.2,1.3c-0.1-0.6-0.6,0.3-0.6-0.2
						c-0.3,0.2,0.1,0.4,0.1,0.6c-0.2,0.1-0.5-0.1-0.6-0.3l0.1,0.3h-0.1l0.1,0.3c-0.3,0.2-0.4-0.1-0.5,0.1l0.3,0.2l-0.2,0.1
						c0.2,0,0.2,0.2,0.1,0.3h-0.1v0.2c-0.1-0.3-0.1,0.2-0.3,0c-0.1,0.2-0.1,0.2-0.2,0.5h0.2c0,0.5-0.3-0.1-0.5,0.2l0.2,0.1
						c-0.6,0.3-0.1,0.9-0.5,1.2c0-0.2-0.3-0.3-0.2-0.3c0,0.4-0.3,0.8-0.1,1.3c-0.4,0-0.5,0-0.8,0.3c-0.1,0.3-0.1,0.3,0.1,0.5
						c-0.2,0.2-0.2,0.7-0.5,0.6c0.2,0.1-0.1,0.2,0,0.4h-0.1l0.2,0.1c-0.7,0.2,0,0.8-0.6,1.1v-0.1v0.2c-0.1,0-0.2-0.1-0.3-0.2
						l-0.4,0.8l0.2-0.1c0,0.2,0.1,0.4-0.1,0.5c-0.2-0.5-0.1,0.3-0.4,0.2v-0.2c-0.1,0.3-0.1,0.3,0.2,0.3c0,0.4-0.5,0.1-0.4,0.4
						l0.1-0.2c0.2,0,0.3,0.2,0.2,0.3c0,0-0.2,0.1-0.2,0c0,0.3-0.3,0.6-0.2,0.8c-0.1,0.1-0.3,0-0.3-0.1c0,0.6-0.1,0.2-0.1,0.8
						l-0.1-0.1l0.1,0.2l-0.4,0.2h0.2c0,0.2,0,0.3-0.1,0.5l-0.2-0.2c-0.1,0.5-0.5,0.5-0.4,1l-0.1-0.1c0.2,0.6-0.5,0.2-0.2,0.8
						c-0.1-0.1-0.2,0-0.2-0.1l0.1,0.2l-0.3-0.1l0.3,0.3h-0.3l0.1,0.1c-0.6,0-0.3,0.5-0.8,0.6l0.4,0.1c0.5,1-1,1.6-1,2.6l-0.3-0.1
						l0.2,0.5c-0.3,0.1-0.2-0.2-0.4-0.2c0,0.5,0.4,0.3,0.3,0.8c-0.3,0.2-0.2-0.1-0.2-0.3c0,0.5-0.1,1.2-0.3,1.4c0,0,0.1,0.1,0.1,0
						c0,0.3-0.2,0.7-0.3,1c-0.1,0-0.1-0.1-0.1-0.2c-0.1,0.1-0.2,0.2-0.1,0.4l-0.2-0.2c-0.1,0.2-0.1,0.8-0.4,0.8
						c0.1,0,0.3,0.1,0.2,0.3c-0.5,0,0,0.6-0.3,0.9c-0.1-0.1,0-0.3-0.1-0.3c-0.2,0.1,0,0.4,0.1,0.5l-0.2-0.1v0.9
						c-0.5,0-0.2,0.8-0.5,0.6c-0.1,0.3,0.3-0.2,0.2,0.2c-0.2,0,0,0.4-0.3,0.3l0,0l-0.1,0.3l-0.2-0.2c0,0.2,0.2,0.5,0.4,0.6
						c-0.2,0.2-0.2,0.5-0.5,0.5v-0.1c0,0.3-0.3,0.5-0.5,0.7c-0.1,0.1-0.2,0.2-0.2,0.3c0,0.1,0,0.1,0,0.2c0,0,0.1,0,0.1,0.1h-0.1v0.1
						l-0.2-0.1l0.3,0.3l-0.1-0.1c-0.1,0,0,0.2,0,0.4v-0.1c0.1,0.3-0.1,0,0,0.2v-0.1v0.1l-0.1-0.2c0.2,0.4-0.3-0.4-0.1-0.1
						c0.1,0.2,0.2,0.5,0.3,0.7c0,0.1-0.1-0.2-0.2-0.4c0,0,0.1,0.4,0,0.3l-0.1-0.2c0,0.1,0.1,0.3,0.1,0.4v-0.1
						c0.1,0.6-0.2-0.7,0.1,0.6c-0.1-0.2-0.1,0.1-0.2-0.5c0.1,0.5,0.1,0.8,0,1.2c-0.2-1.1,0,0.1-0.1-0.5l0.1,0.6
						c0,0.1-0.1-0.2-0.2-0.5c-0.1-0.3-0.1-0.7-0.2-0.5v-0.7l-0.1,0.8c-0.1-0.1,0-0.4,0-0.5c0-0.2,0-0.3,0-0.3
						c-0.1,0.3-0.2,0.9-0.2,0.7v-0.1c0,0.1-0.1,0.1-0.1,0.2c0,0-0.1-0.1,0-0.3c0.1-0.2,0.1-0.2,0.2-0.4c-0.2,0.4,0,0,0-0.1l-0.1,0.3
						c-0.2,0.3,0-0.1,0.1-0.4c0,0,0,0.1-0.1,0.2c0,0.1-0.1,0.2-0.1,0.2s0-0.1,0.1-0.2l-0.1,0.2l0.2-0.5c0,0.1-0.1,0.1-0.4,0.5
						c0.1-0.1,0.1-0.3,0.2-0.3v-0.3l-0.1,0.1c-0.2,0.2-0.4,0.3-0.3,0.1c0.2-0.1,0.3-0.3,0.4-0.4c-0.1,0.1-0.2,0.2-0.3,0.3
						c-0.1,0.1-0.3,0-0.2-0.1h0.1c-0.1,0,0.3-0.3,0.2-0.4c-0.2,0,0-0.1-0.4,0.1c-0.1-0.1,0.3-0.2,0.3-0.2c-0.1,0-0.1,0-0.1-0.1
						c0,0,0.1-0.1,0.2-0.2c-0.7,0,0-1-0.6-0.9l0.2-0.4c-0.1,0-0.5,0.1-0.6-0.1c0.1-0.3,0.3-0.3,0.5-0.4h-0.6
						c0.2-1.4-0.6-2.8-0.6-4.3c-0.3-0.6-0.8-1.2-0.9-1.9l0.1,0.1l-0.1-0.7l-0.1,0.6c-0.1-0.1-0.2-0.2-0.3-0.4c0-0.8-0.1-1.9-0.7-2.7
						c-0.8-0.4,0.4-0.6-0.2-1c0.1,0,0.2,0,0.2,0c-0.4-0.5-0.6-0.8-1.2-1.3c0.6-0.1-0.2-0.4,0.2-0.4h-0.3c0.1-0.2,0-0.5,0.2-0.5
						l-0.4-0.2l0.2-0.1c-0.1-0.4-0.6-1.1-0.2-1.4c-0.7-0.7-1.1-2.2-1.4-3.3c-0.3-0.1-0.4-0.4-0.5-0.6l0.2-0.4
						c-0.2-0.2-0.7-0.3-0.6-0.7h0.1c-0.2-0.2-0.1-0.5-0.5-0.7c-0.1-0.3-0.1-0.6,0.2-0.6c-0.5,0.2-0.2-0.6-0.2-0.6s-0.1-0.2-0.2-0.6
						c-0.1-0.4-0.3-1-0.6-1.7c-0.6-1.5-1.4-3.5-2.6-5.5c-1.2-2.1-2.8-4.2-4.7-5.7s-3.9-2.3-5.1-2.2c-0.3,0.1-0.7,0.1-0.7,0.4
						c-0.3-0.1-0.2-0.5-0.4-0.3c0.3,0.3-0.4,0.5-0.2,1l-0.2-0.1c-0.1,0.1,0.4,0,0.2,0.2l0.3-0.4c0.1,0.2,0.2,0.3,0.2,0.5
						c0.2-0.1,0.7-0.6,0.9-0.1h-0.1c0.3,0.2,0,0.4,0.1,0.5h-0.1l0.1,0.4c-0.1-0.3-0.6-0.1-0.4,0c0.3,0.3,0-0.2,0.3,0
						c0.2,0.1,0,0.3-0.1,0.4l0.3,0.2c-0.1,0.2-0.2-0.1-0.2,0.1h0.5c-0.3,0.5,0.5,0.1,0.4,0.6c-0.3-0.1-0.1,0.2-0.2,0.3
						c0,0,0.2,0.1,0.3,0.2c0.1,0.1,0.3,0.2,0.3,0.2c0,0.1-0.3,0-0.2,0.1c0,0.2,0.3,0,0.3,0.1c-0.1,0.2,0.4,0.4,0.2,0.6
						c0.2,0.5,0.5-0.2,0.7,0.3c-0.1,0.2-0.3-0.2-0.3,0.1l0.4,0.3c-0.1,0-0.3,0.2-0.4,0c0.7,1.1,0.2,2.4,1.1,3.1
						c-0.1,0.3-0.2,0-0.4,0c0.8,0.4,0.2,1.2,0.6,1.8l0.2-0.1c-0.1,1.2,0.8,1.9,1.1,3.1l0.1-0.2c0.3,0,0.4,0.3,0.6,0.4
						c-0.1,0.1-0.5,0.1-0.3,0.3c0-0.1,0.1-0.3,0.2-0.3c-0.1,1.1,0.9,2.9,1.3,4.5c1,2,1.5,4.4,2.4,6.3c-0.1-0.3,0.4-0.4,0.4-0.1
						c-0.6,1,0.6,1.1,0.2,1.9c0.7,1.1,0.3,2.4,1.4,3.3l-0.2,0.1c-0.1,0.2,0.1,0.2,0.2,0.4h-0.1c0,0.4,0.5,0.9,0.4,1.1l0.3-0.1
						c0.1,0.2-0.2,0.2,0.1,0.4h-0.1l0.4,0.2c-0.5,0.1,0.2,0.7,0,1c0.2,0.3,0.6,0.8,0.7,1.3c-0.2,0.2,0,0.8,0,1.2
						c0.3,0.7,0.7,1.7,0.9,2.7l0.3-0.1l0.1,0.2c-0.1,0-0.1,0.1-0.1,0c-0.3,0.3,0.3,0.5,0.1,0.8c0.2-0.2,0-0.2,0-0.3
						c0.1-0.2,0.5-0.1,0.4,0.2h-0.1l0.2,0.1c-0.2,0.1-0.3,0.3-0.5,0.4c0.1,0.4,0.4,0.7,0.6,1c0.1,0.2,0.2,0.3,0.3,0.5
						c0.1,0.3,0.2,0.7,0.3,1.1c-0.3,0,0.4,1.1-0.2,1c0.4,0.8,0.3-0.4,0.7-0.1c0.1,0.2,0.2,0.4,0.1,0.6c-0.1,0-0.2,0.4-0.3,0.2
						l0.2,0.6c0,0.1-0.1,0-0.2-0.1c0.6,1,0.3,2.7,0.8,3.6c0.2-0.1-0.1-0.5,0.1-0.6c0.6,0.8,0,1.4,0.5,2.3l-0.2,0.1
						c0.2,0.2,0.4,0,0.4,0.9c-0.2,0.5-0.3-0.2-0.4-0.3c0.1,0.5,0.4,1.5,0.5,0.7c0.2,0.4,0,1,0.1,1.4c0-0.1,0-0.8,0.2-0.7
						c0,1,0.3,2.1,0.5,3c0,0.1-0.1,0.4-0.1,0.4c0.1,0,0.1,0,0.2,0.2C244.9,315.9,244.8,316.6,245.1,316.4z"/>
					<path d="M258,294.7l-0.1,0.2c0.1,0,0.1,0,0.2,0.1L258,294.7z"/>
					<path d="M255.2,303.3v0.1C255.3,303.4,255.3,303.4,255.2,303.3z"/>
					<path d="M254.7,307c0-0.3-0.1-0.2-0.2-0.1C254.6,307,254.6,307,254.7,307z"/>
					<path d="M258.8,289.9c0,0,0,0.1,0.1,0.1C258.9,290,258.8,289.9,258.8,289.9z"/>
					<path d="M263.5,277.6L263.5,277.6L263.5,277.6z"/>
					<path d="M262.8,278.1c0,0,0,0.1,0,0.2C262.8,278.2,262.8,278.1,262.8,278.1z"/>
					<path d="M257.9,293c0,0,0,0.1,0,0.2C257.9,293.1,257.9,293.1,257.9,293z"/>
					<path d="M262.8,278.4l-0.1,0.2c0,0,0,0,0.1,0V278.4z"/>
					<path d="M263.6,277.4c0,0.1-0.1,0.2-0.1,0.2C263.6,277.5,263.6,277.4,263.6,277.4z"/>
					<path d="M260,285.2L260,285.2C260.1,285.4,260.1,285.3,260,285.2z"/>
					<polygon points="263,279.3 263,279.4 263,279.4 					"/>
					<path d="M264,276.7v0.1C264.1,276.7,264.1,276.7,264,276.7C264.1,276.7,264.1,276.7,264,276.7z"/>
					<path d="M261.4,282.8c-0.1-0.1-0.1-0.1-0.2-0.2C261.2,282.7,261.2,282.7,261.4,282.8z"/>
				</g>
			</g>
		</g>
	</g>
</g>
<g>
	<g>
		<g>
			<g>
				<g>
					<path d="M253.4,300.2L253.4,300.2L253.4,300.2z"/>
					<path d="M254.7,291.4l0.1,0.1C254.7,291.5,254.7,291.5,254.7,291.4z"/>
					<path d="M252.5,305.4C252.5,305.3,252.5,305.3,252.5,305.4s-0.1,0.2-0.1,0.3L252.5,305.4z"/>
					<path d="M255.2,272.7v0.1V272.7z"/>
					<path d="M255,283.8c-0.1,0-0.1-0.1-0.1-0.1S254.9,283.8,255,283.8z"/>
					<path d="M249.4,307.7l0.2-0.1C249.5,307.6,249.4,307.6,249.4,307.7z"/>
					<path d="M249.3,313C249.3,313,249.4,313,249.3,313C249.4,313,249.3,313,249.3,313z"/>
					<path d="M250.4,311.1c0,0,0-0.1-0.1-0.2C250.4,311,250.4,311.1,250.4,311.1z"/>
					<path d="M250.3,310.9L250.3,310.9C250.4,310.9,250.4,310.9,250.3,310.9z"/>
					<path d="M243.9,205.9c0-0.1-0.2-0.2-0.4-0.3L243.9,205.9z"/>
					<path d="M253.9,255.9L253.9,255.9L253.9,255.9z"/>
					<path d="M242.3,206.3v-0.1C242.2,206.2,242.2,206.2,242.3,206.3z"/>
					<path d="M249.2,304.9c-0.2-0.2,0.1-0.5-0.1-0.5C249.1,304.6,249,304.8,249.2,304.9z"/>
					<path d="M246.5,253.1L246.5,253.1C246.4,253.1,246.5,253.1,246.5,253.1z"/>
					<path d="M242.3,206.3v0.1C242.3,206.4,242.3,206.4,242.3,206.3L242.3,206.3z"/>
					<path d="M251.9,238.5L251.9,238.5L251.9,238.5L251.9,238.5z"/>
					<path d="M252.1,237.5c0,0.1,0.1,0.1,0.1,0.2C252.1,237.6,252.1,237.6,252.1,237.5z"/>
					<path d="M243.5,205.5l-0.2-0.2C243.3,205.4,243.4,205.5,243.5,205.5z"/>
					<path d="M250.4,227.6L250.4,227.6C250.5,227.6,250.4,227.6,250.4,227.6z"/>
					<path d="M254.9,284.5C254.9,284.6,254.9,284.6,254.9,284.5C254.9,284.6,254.9,284.6,254.9,284.5z"/>
					<path d="M249.8,277.8L249.8,277.8L249.8,277.8z"/>
					<path d="M250,278.1c0-0.1-0.1-0.3-0.2-0.4C249.8,277.9,249.8,278,250,278.1z"/>
					<path d="M249.8,277L249.8,277L249.8,277z"/>
					<path d="M249.7,284.3L249.7,284.3L249.7,284.3z"/>
					<path d="M249.6,282.9l0.1-0.1C249.7,282.8,249.6,282.8,249.6,282.9z"/>
					<path d="M249.1,273.4L249.1,273.4L249.1,273.4z"/>
					<path d="M246.6,259.9c0.2,1.4,0.8,3.1,0.8,4.5c0.4,0.3,0.5,0.7,0.6,1.1l-0.5,0.1l0.2,0.3c-0.1,0.2-0.1-0.3-0.3,0l0.3,0.1
						c-0.2,0,0,0.9-0.5,0.4l0.1,1.4c0,0.3,0.4,0.1,0.3,0.5c-0.1,0.1-0.1-0.1-0.3-0.1c-0.3,1.1,1.1,1.1,0.9,2.1l-0.1-0.1
						c0.1,0.2,0.2,0.5,0.2,0.5c0.5-0.2-0.3-0.2,0-0.5c0.4,0,0.3,0.3,0.6,0.3c-0.1,0.2,0.1,0.4,0.2,0.5c-0.2,0.4,0,0.8-0.3,1.1
						c0.1,0.2,0.6,0.3,0.6,0.7c-0.3,0.3-0.3,0-0.4,0.3h0.3c0,0.3-0.1,0.2-0.2,0.2c0,0.3,0.4,0.2,0.2,0.6l-0.3-0.2
						c0.1,0.3,0.1,0.4,0.1,0.8c-0.1,0-0.1-0.2-0.1-0.3c-0.4,0.2,0.2,0.4,0.1,0.5c0.1,0,0.1-0.3,0.4-0.2c0,0.2,0.4,0.4,0.1,0.5
						l-0.3-0.2c0.2,0.4,0.3,0.2,0.3,0.7h-0.1c0.3,0.3,0.1,0.7,0.1,1.1l-0.1-0.1c0.1,0.2,0.3,0.3,0.3,0.4c0.1-0.3,0.2-0.2,0.4-0.2
						c-0.4,0.3,0.5,0.5,0.3,1c-0.1,0-0.3-0.1-0.2-0.3c-0.4-0.2-0.8-0.2-1-0.5c0.1,0.2,0.2,0.4,0,0.4h0.4c0,0.1,0,0.2,0,0.3
						c0.3,0,0.4-0.3,0.6,0c0.1,0.3-0.4,0.2-0.2,0.2c0.2,0.4,0.4,0.2,0.3,0.6c0,0-0.1-0.1-0.1-0.2c-0.1,0.3,0.1,0.7-0.4,0.8
						c-0.1,0-0.3,0-0.2-0.2h0.1c-0.4-0.3,0.1,0.3-0.3,0.2c0.3,0,0.2,0.4,0.2,0.6l0.3-0.1c0.9,0.6-0.6,0-0.4,0.6
						c0.2,0.4,0.1-0.2,0.3,0.1c0,0.3-0.3,0.4-0.2,0.8c-0.1,0.1-0.3,0.3-0.6,0.4c0.1,0.2-0.1,0.7,0.2,0.9c0.3-0.4-0.3-0.4,0.1-0.9
						l0.3,0.1c0,0.3,0.2,0.8,0,1c0.1,0,0.1-0.1,0.2,0c0.1,0.5,0.4,0.6,0.4,1.1c-0.3,0.1-0.2-0.2-0.3-0.4c-0.2,0.3,0,0.3-0.1,0.8
						c-0.3,0,0-0.3-0.2-0.4l0.1,0.5c0,0,0,0-0.1,0c0.4,0.1,0,0.4,0.1,0.7c0,0.7,0.6,0.8,0.9,1.3c-0.1,0.1-0.2,0.1-0.3,0.1
						c0.2-0.2,0-0.1-0.1-0.2c0,0.3-0.4,0.5-0.6,0.4c0.1,0.4,0.2-0.1,0.4,0.1v0.5c0.2-0.1,0.3-0.3,0.4,0c0.1,0.2,0,0.4,0,0.7
						c-0.1,0-0.3,0.1-0.3-0.1c-0.1,0.1-0.1,0.4,0.1,0.5c0.2-0.3,0.2,0.6,0.5,0.3l-0.2,0.3c0-0.1-0.1-0.1-0.1-0.2
						c-0.3,0.1,0.1,0.3,0.1,0.4c-0.1,0.1-0.1,0.4-0.2,0.5c0.1,0.1,0,0.4-0.2,0.4c0.1,0.2,0.2,0,0.3,0.1v0.5c-0.2,0-0.7,0.1-0.8,0
						c0.2,0.2,0.5,0.1,0.5,0.4c-0.4-0.2-0.3,0.4-0.7,0.1c-0.3,0.2-0.3,0.7-0.2,1c0.3,0.2,0.2-0.3,0.5-0.3c0.1,0.8,0.9,0.9,0.7,1.4
						l0.1-0.1c0.1,0.4,0.1,0.3,0.4,0.5c-0.4-0.1-1,0.4-0.9,1c0.2,0.1,0.4-0.3,0.6-0.2v0.4c0,0-0.1,0-0.1-0.1
						c0.1,0.4-0.5,0.6-0.1,0.8l-0.5,0.3l0.2-0.1c0.2,0.1,0.2,0.5,0.3,0.5c0.2,0.4,0,0.6-0.2,0.8c0.2-0.1,0.5-0.2,0.5,0.1
						c-0.6,0-0.3,0.7-0.6,0.6c0,0.1-0.2,0.3,0,0.4h-0.4c0.5,0.1,0.4,0.5,0.5,0.9c-0.7-0.1,0,0.4-0.6,0.5c0.5,0.1,0.1,0.6,0.5,0.7
						c0,0.3-0.4,0.2-0.6,0.3l0.2,0.1c-0.2,0.1-0.3,0.6-0.5,0.9l0.4,0.3l-0.2,0.1c0.1,0.1,0.1,0.3,0.3,0.2v0.2
						c0.4,0.1,0.1,0.2,0.3,0.6c-0.1,0.1-0.2,0-0.2,0c0,0.2-0.2,0.1-0.4,0.1c0.1-0.1,0.7,0.6,1,0.2c0.2,0,0.3,0.2,0.2,0.4l-0.4,0.1
						l0.4,0.2c0,0.2-0.2,0.3-0.3,0.5c0-0.2-0.7-0.5-0.8,0c0-0.3-0.2-0.4-0.3-0.6c0,0.1-0.1,0.2-0.2,0c0.1,0.4,0.2,0.2,0.2,0.6
						c-0.4-0.1-0.5,0-0.6,0.4l0.3-0.2c0,0,0.1,0,0.1,0.1c0-0.1,0.1-0.1,0.2-0.1c0,0.1,0.4,0.5,0.2,0.5c0.6-0.3,0.4,0.7,0.7,0.5
						c0.1,0.1,0.1,0.3-0.1,0.3c-0.2-0.4-0.4,0.2-0.7,0.1c0.1,0.1,0.3-0.2,0.4,0c0,0.2-0.2,0.3-0.4,0.4l-0.1-0.1l-0.2,0.3
						c0.2,0.1,0.3-0.3,0.4,0c-0.1,0.1,0,0.4-0.2,0.3c-0.2-0.2-0.6-0.1-0.6-0.4c0,0.2,0,0.8,0.3,0.6v0.2c0.2-0.1,0.5-0.5,0.5,0h-0.1
						l0.2,0.4l-0.2,0.1c0.1,0,0.2,0.1,0.1,0.2c-0.1,0-0.2,0.1-0.3,0.1c0,0.4,0.2,0.3,0.3,0.4c0,0.2-0.1,0.3-0.3,0.1
						c-0.1,0.3-0.1,0.7-0.3,0.9c0.1,0.4,0.1-0.1,0.3,0.2c-0.7,0.2-0.4,1.1-0.5,1.7c0.6-0.1,0,0.2,0.5,0.4c-0.1-0.2-0.5,0.5-0.6-0.1
						v0.3c-0.3,0.2-0.1-0.5-0.6-0.3c0,0.3,0.5,0.7,0.2,1.1c-0.4-0.2,0.1,0.3-0.3,0.2c-0.1-0.1-0.1-0.2-0.1-0.3l-0.1,0.1
						c-0.2,0.7,0.4,0.3,0.6,0.7c0,0.5-0.4,0.3-0.6,0.3c-0.1,0.1-0.1,0.3,0,0.4c-0.2-0.3,0.3-0.5,0.6-0.3c-0.5,0.1-0.2,0.7,0,0.8
						c0.6-0.6,0.1-0.5,0.7-1c-0.1-0.1-0.5-0.2-0.3-0.5c0.2,0.3,0.2,0,0.3,0c-0.2,0,0-0.3-0.1-0.4c0.2-0.1,0.5,0.3,0.6,0l-0.5-0.2
						c0.1-0.1,0.4,0.1,0.3-0.2c0.2,0.2,0.4,0,0.5,0.5c0.5-0.4-0.1-0.8-0.2-1.3l0.1,0.1c-0.1-0.1-0.1-0.3-0.1-0.4
						c0.2-0.2,0.2,0.2,0.4,0.2l0.1-0.4l0,0c-0.1-0.1-0.1-0.2,0.1-0.3c0.1,0.2,0.3,0.2,0.4,0.3l-0.3-0.5c0.2,0.1,0.4-0.3,0.4,0
						c0,0,0-0.2,0-0.3c0-0.2,0-0.3,0-0.3h0.4c0-0.2-0.1-0.2-0.2,0c0.1-0.2-0.5-1.1,0.2-0.9c-0.2-0.6-0.1-0.7-0.2-1.4
						c0.3,0.5,0.5-0.5,0.6,0c0.2-0.3-0.2-0.4-0.2-0.6c0.2-0.2,0.5-0.1,0.6,0.2l-0.1-0.3h0.1l-0.2-0.3c0.2-0.2,0.4,0,0.5-0.3
						l-0.3-0.1l0.2-0.2c-0.2,0.1-0.2-0.1-0.2-0.3h0.1v-0.2c0.2,0.3,0.1-0.2,0.3-0.1c0-0.2,0-0.2,0-0.6h-0.2c-0.1-0.5,0.3,0,0.4-0.4
						h-0.3c0.5-0.5-0.1-1,0.2-1.4c0,0.2,0.3,0.2,0.3,0.2c-0.1-0.4,0.1-1-0.2-1.4c0.4-0.1,0.5-0.1,0.7-0.5c0-0.3,0-0.3-0.2-0.4
						c0.2-0.3,0-0.8,0.3-0.8c-0.2-0.1,0.1-0.2-0.1-0.4h0.1H253c0.6-0.4-0.3-0.8,0.3-1.3l0.1,0.1l-0.1-0.2c0.1,0,0.2,0.1,0.3,0.1
						l0.1-0.9l-0.2,0.2c0-0.2-0.2-0.4-0.1-0.6c0.4,0.4,0-0.3,0.3-0.4l0.1,0.2c0-0.3,0-0.3-0.3-0.3c-0.1-0.4,0.5-0.2,0.3-0.6v0.2
						c-0.2,0.1-0.3-0.1-0.3-0.3c0,0,0.2-0.1,0.2,0c-0.1-0.3,0.1-0.7,0-0.8c0.1-0.2,0.3-0.1,0.3,0c-0.2-0.6,0.1-0.3-0.1-0.9h0.1
						l-0.2-0.2l0.3-0.3l-0.2,0.1c0-0.2-0.1-0.3,0-0.6l0.2,0.1c-0.1-0.6,0.4-0.6,0.1-1.2l0.1,0.1c-0.3-0.5,0.4-0.4,0-0.9
						c0.1,0,0.2,0,0.2,0l-0.1-0.2h0.3l-0.4-0.2l0.3-0.1l-0.1-0.1c0.6-0.2,0.1-0.6,0.6-0.9l-0.4,0.1c-0.7-0.9,0.4-1.9,0.1-3h0.3
						l-0.3-0.4c0.2-0.2,0.2,0.1,0.4,0.1c-0.2-0.5-0.4-0.2-0.5-0.7c0.2-0.3,0.2,0.1,0.3,0.2c-0.1-0.5-0.3-1.2-0.2-1.6h-0.1
						c-0.1-0.3,0-0.8,0-1.1c0.1,0,0.2,0.1,0.2,0.2c0-0.1,0.1-0.3,0-0.4l0.3,0.1c0-0.3-0.2-0.8,0.1-0.9c-0.1,0-0.3,0-0.3-0.2
						c0.4-0.1-0.2-0.6,0-1c0.1,0,0.1,0.3,0.1,0.2c0.1-0.2-0.1-0.4-0.2-0.5h0.2l-0.3-0.9c0.4-0.1-0.1-0.8,0.2-0.8
						c0-0.3-0.2,0.3-0.3-0.1c0.2-0.1-0.1-0.4,0.2-0.4l0,0v-0.3l0.3,0.2c-0.1-0.2-0.4-0.4-0.6-0.4c0.1-0.2,0-0.6,0.3-0.7l0.1,0.1
						c-0.1-0.6,0.7-1.1,0.2-1.6h0.1v-0.4l0.2,0.1l-0.4-0.6h0.1c0-0.4-0.1-1.1-0.2-1.7l0.1,0.1c-0.3-0.6,0.1-0.6-0.1-1h0.1V272
						l0.1,0.1c-0.3-0.3,0.4-0.9,0.1-0.7c-0.1-0.2-0.3-0.4-0.5-0.5c0-0.4,0.2-0.1,0.3-0.4c0-0.3-0.3-0.4-0.2-0.8h0.1
						c0-0.2-0.2-0.3-0.2-0.6l0.1,0.1c-0.3-0.4,0.4-0.6-0.3-0.9c0.1-0.2,0-0.6,0.3-0.6c-0.2-0.6-0.3-1-0.5-1.5c0.5-0.1,0-0.1,0.2-0.5
						h-0.3c-0.1-0.8,0.4-1.8,0.3-2.6h0.3l-0.3-0.2c0-1,0-2.2-0.1-2.9c-0.2-0.2-0.5-0.6-0.4-1l0,0c-0.2-0.7-0.4-1.4-0.3-2.1
						c0.1,0,0.2,0,0.3,0c-0.3-0.1-0.1-0.4-0.1-0.6l-0.2,0.2c-0.3-0.2-0.1-0.5,0.1-0.6l-0.3-0.3l0.1-0.1h-0.1l0.3-0.2
						c-0.1-0.1-0.2-0.5-0.5-0.6c0.1,0,0.2-0.4,0.2-0.1v-1.2l-0.1,0.2c-0.3,0.1-0.5-0.3-0.4-0.5c0.2,0.2,0.4,0,0.5-0.1
						c-0.2-0.1-0.2,0.2-0.4,0.1c-0.2-0.2-0.3-0.6-0.2-0.7l0.1,0.1c-0.1-0.3,0.3-0.5,0.2-0.7c-0.2-0.2-0.1-0.4-0.5-0.3
						c-0.1-0.3,0.3-0.2,0.3-0.3c-0.2-0.1-0.2-0.7,0.1-0.8c-0.7-0.1,0.1-1-0.4-1l0.3-0.3c-0.1,0-0.5,0-0.6-0.2
						c0.1-0.2,0.4-0.2,0.5-0.3l-0.6-0.1c0.4-1.4-0.2-3,0.1-4.5c-0.2-0.6-0.5-1.4-0.6-2.1l0.1,0.1l0.1-0.8l-0.2,0.6
						c-0.1-0.2-0.2-0.3-0.2-0.4c0.1-0.8,0.3-1.9-0.1-2.9c-0.7-0.6,0.5-0.5,0-1.1c0.1,0,0.2,0.1,0.2,0.1c-0.3-0.6-0.4-1-0.9-1.6
						c0.6,0-0.1-0.4,0.3-0.4h-0.3c0.1-0.2,0.1-0.5,0.3-0.5l-0.3-0.3l0.2-0.1c0-0.4-0.3-1.2,0.1-1.5c-0.5-0.9-0.6-2.5-0.7-3.7
						c-0.2-0.1-0.3-0.5-0.4-0.8l0.3-0.3c-0.1-0.3-0.6-0.5-0.4-0.8h0.1c-0.1-0.3,0-0.6-0.3-0.8c0-0.3,0.1-0.7,0.4-0.6
						c-0.5,0,0-0.7,0-0.7s-0.3-4.1-1.4-8.7c-1.1-4.6-3.1-9.5-5.2-10.9c-0.3,0-0.6-0.3-0.8-0.1c-0.2-0.2,0.2-0.5-0.1-0.5
						c0,0.4-0.6,0.1-0.8,0.6l-0.1-0.2c-0.2,0,0.3,0.2,0,0.3l0.5-0.1c0,0.2,0,0.3-0.2,0.5c0.2,0.1,0.9,0,0.8,0.5l-0.1-0.1
						c0.1,0.3-0.2,0.3-0.2,0.4V207l-0.1,0.4c0.1-0.3-0.4-0.5-0.3-0.3c0,0.4,0.1-0.1,0.2,0.1c0.1,0.2-0.2,0.2-0.3,0.3l0.1,0.3
						c-0.2,0.1-0.1-0.2-0.2,0l0.4,0.3c-0.5,0.3,0.4,0.4,0,0.7c-0.2-0.3-0.2,0.1-0.3,0.1l0.3,0.7c0,0.1-0.2-0.1-0.2,0
						c-0.1,0.2,0.2,0.2,0.2,0.3c-0.1,0.1,0.2,0.6-0.2,0.6c-0.1,0.6,0.5,0.1,0.5,0.6c-0.2,0.1-0.2-0.4-0.3-0.1l0.2,0.5
						c-0.1,0-0.4,0-0.4-0.2c0.1,1.4-0.8,2.4-0.2,3.6c-0.2,0.2-0.2-0.1-0.4-0.2c0.6,0.8-0.2,1.4,0,2.1h0.2c-0.4,1.2,0.3,2.4,0.3,3.6
						l0.1-0.2c0.2,0.1,0.3,0.4,0.5,0.6c-0.1,0.1-0.5,0-0.3,0.3c0.1-0.1,0.1-0.2,0.2-0.2c-0.3,1.1,0.2,3.3,0.2,5
						c0.6,2.3,0.5,4.8,0.9,7.1c-0.1-0.3,0.5-0.3,0.4,0c-0.8,0.8,0.3,1.2-0.2,2c0.5,1.3-0.2,2.6,0.7,3.8l-0.3,0.1
						c-0.1,0.2,0.1,0.2,0.1,0.4h-0.1c0,0.5,0.3,1,0.2,1.3h0.3c0.1,0.3-0.2,0.2,0,0.4h-0.1l0.3,0.3c-0.5,0,0.1,0.8-0.1,1
						c0.1,0.3,0.4,1,0.4,1.6c-0.2,0.1-0.2,0.8-0.2,1.2c0.2,0.8,0.4,2,0.4,3l0.3-0.1l0.1,0.3c-0.1,0-0.1,0-0.1,0
						c-0.3,0.3,0.2,0.6,0,0.9c0.3-0.2,0-0.2,0-0.4c0.1-0.2,0.5-0.1,0.3,0.3H246l0.2,0.2c-0.3,0.1-0.3,0.3-0.6,0.3
						c0.2,0.9,0.7,1.5,0.7,2.4c-0.3-0.1,0.1,0.7-0.4,0.5c0.3,0.5,0.4-0.1,0.8,0.1c0,0.2,0.2,0.3,0,0.4c-0.1-0.1-0.3,0.2-0.3,0
						l0.1,0.4c0,0-0.1,0-0.1-0.1c0.4,0.7-0.2,1.4,0.2,2c0.2,0,0-0.3,0.2-0.2c0.4,0.6-0.3,0.6,0.1,1.2l-0.3-0.1
						c0.2,0.2,0.4,0.3,0.3,0.6c-0.3,0.1-0.3-0.3-0.4-0.4c0,0.2,0.2,0.8,0.4,0.6c0.1,0.3-0.1,0.4-0.2,0.6c0.1,0,0.2-0.3,0.3-0.1
						c-0.1,0.4-0.1,1,0,1.4c-0.1,0-0.2,0-0.2,0C247.1,259.4,246.5,259.4,246.6,259.9z"/>
					<path d="M249.6,284.5v-0.2c-0.1,0-0.1,0-0.2-0.1L249.6,284.5z"/>
					<path d="M249.5,275.6L249.5,275.6L249.5,275.6z"/>
					<path d="M248.9,273.5c0.1,0.2,0.1,0,0.2-0.1C249,273.4,249,273.4,248.9,273.5z"/>
					<path d="M250.4,289.5C250.4,289.5,250.3,289.4,250.4,289.5L250.4,289.5z"/>
					<path d="M249.4,303.4L249.4,303.4L249.4,303.4z"/>
					<path d="M249.9,302.7c0,0,0-0.1,0-0.2C249.9,302.6,249.9,302.6,249.9,302.7z"/>
					<path d="M250.3,286.2c0-0.1,0-0.1-0.1-0.1C250.2,286.1,250.3,286.1,250.3,286.2z"/>
					<path d="M249.8,302.4l0.1-0.2c0,0,0,0-0.1,0V302.4z"/>
					<path d="M249.3,303.6c0-0.1,0-0.2,0.1-0.2C249.3,303.5,249.3,303.6,249.3,303.6z"/>
					<path d="M250.6,294.7C250.6,294.7,250.6,294.6,250.6,294.7C250.5,294.5,250.5,294.6,250.6,294.7z"/>
					<polygon points="249.4,301.5 249.4,301.4 249.4,301.4 					"/>
					<path d="M249.1,304.5v-0.1C249.1,304.4,249.1,304.4,249.1,304.5L249.1,304.5z"/>
					<path d="M250,297.5c0.1,0.1,0.2,0.1,0.2,0.1S250.2,297.5,250,297.5z"/>
				</g>
			</g>
		</g>
	</g>
</g>
</svg>
