<?xml version="1.0" encoding="utf-8"?>
<!-- Generator: Adobe Illustrator 22.0.1, SVG Export Plug-In . SVG Version: 6.00 Build 0)  -->
<svg version="1.1" id="Layer_1" xmlns="http://www.w3.org/2000/svg" xmlns:xlink="http://www.w3.org/1999/xlink" x="0px" y="0px"
	 viewBox="0 0 400 400" style="enable-background:new 0 0 400 400;" xml:space="preserve">
<g>
	<g>
		<g>
			<g>
				<g>
					<g>
						<path d="M222.7,82.6v-0.1C222.6,82.5,222.6,82.6,222.7,82.6z"/>
						<path d="M200.7,98.8l0.2-0.3C200.7,98.7,200.7,98.8,200.7,98.8z"/>
						<path d="M236.6,74.1L236.6,74.1c0.2-0.1,0.5-0.2,1-0.5L236.6,74.1z"/>
						<path d="M161.9,142.5l0.2-0.3C162,142.3,161.9,142.4,161.9,142.5z"/>
						<path d="M183.5,115.3c0,0.1-0.1,0.3-0.2,0.4C183.4,115.6,183.6,115.4,183.5,115.3z"/>
						<path d="M245.5,72.4H245C245,72.5,245.2,72.5,245.5,72.4z"/>
						<path d="M259.9,64.6L259.9,64.6C259.8,64.6,259.8,64.6,259.9,64.6z"/>
						<path d="M253.7,66.5c-0.1,0.1-0.2,0.2-0.4,0.3C253.5,66.7,253.7,66.6,253.7,66.5z"/>
						<path d="M253.2,66.9l0.2-0.1C253.2,66.9,253.1,66.9,253.2,66.9z"/>
						<path d="M152.3,343.7c0.4,0.3,0.8,0.5,1.2,0.8L152.3,343.7z"/>
						<path d="M138.7,190.1V190C138.6,190.1,138.6,190.1,138.7,190.1z"/>
						<path d="M153.9,342.9l0.2,0.3C154,343,153.9,343,153.9,342.9z"/>
						<path d="M238.2,77.1c-0.3,0.4-1.3,0.7-1.2,0.9C237.5,77.6,238.1,77.4,238.2,77.1z"/>
						<path d="M142.1,202.8l-0.1,0.3C142,202.9,142,202.8,142.1,202.8z"/>
						<path d="M153.9,342.9l-0.3-0.3v0.1C153.7,342.8,153.8,342.8,153.9,342.9z"/>
						<path d="M127.3,244.2L127.3,244.2c0-0.1,0-0.1,0-0.1V244.2z"/>
						<path d="M126.8,247.1c0-0.2,0-0.4,0-0.6C126.8,246.8,126.8,246.9,126.8,247.1z"/>
						<path d="M153.4,344.4l0.7,0.4C153.9,344.7,153.7,344.5,153.4,344.4z"/>
						<path d="M127.3,278.7c0-0.1,0-0.2,0-0.3C127.2,278.6,127.3,278.7,127.3,278.7z"/>
						<path d="M185.1,113.8c0.1,0,0.1-0.1,0.2-0.2C185.3,113.6,185.3,113.6,185.1,113.8z"/>
						<path d="M175.1,133.5L175.1,133.5L175.1,133.5z"/>
						<path d="M175.6,132.4c-0.2,0.3-0.4,0.8-0.5,1.1C175.4,133.2,175.5,132.9,175.6,132.4z"/>
						<path d="M173.6,135.4C173.7,135.4,173.7,135.3,173.6,135.4C173.7,135.3,173.7,135.4,173.6,135.4z"/>
						<path d="M188.4,118L188.4,118L188.4,118L188.4,118z"/>
						<path d="M185.4,121.4c-0.1,0-0.2,0.1-0.3,0.2C185.2,121.5,185.3,121.5,185.4,121.4z"/>
						<path d="M167.6,144.9L167.6,144.9L167.6,144.9L167.6,144.9z"/>
						<path d="M149.4,183.2c1.4-4,3.3-9.2,5.2-13c0.1-1,0.6-2.2,1.2-3.4l0.5,0.1l0.4-1.1c0.3-0.3-0.3,0.8,0.2,0.2l-0.1-0.5
							c0.2,0,1.4-2.5,0.9-0.7c0,0,0.5-1,1-1.9c0.5-1,1.1-1.9,1.1-1.9c0.5-0.8-0.1-0.7,0.5-1.6c0.2-0.1-0.1,0.4,0.1,0.4
							c0.9-1.3,1.2-2.2,1.4-3.1c0.2-0.9,0.4-1.8,1.3-3L163,154c0.1-0.5,0.7-1.3,0.6-1.4c-0.6,0.1,0,0.6-0.8,1.2
							c-0.3-0.3,0.4-1.1,0.1-1.2c0.5-0.5,0.5-1,0.8-1.5c0.8-0.7,1.4-2.1,2.1-2.6c0.2-0.5,0.1-1.2,0.7-2.2c0.7-0.5,0.2,0.3,0.9-0.5
							l-0.1-0.3c0.5-0.7,0.5-0.6,0.6-0.5c0.5-0.8,0.1-0.8,0.9-1.7l-0.2,0.7c0.4-0.8,0.6-1,1.3-2c0.1,0.1-0.2,0.5-0.4,0.8
							c0.7-0.3,0.5-1,0.7-1.3c-0.1,0-0.7,0.7-0.6,0.2c0.4-0.5,0.4-1.3,0.9-1.5l-0.2,0.7c0.5-1.2,0.1-0.8,1-1.9c0,0.1,0,0.1,0.1,0.1
							c0.3-0.9,1.2-1.7,2-2.8l-0.1,0.2c0.3-0.5,0.2-0.9,0.4-1.1c-0.6,0.5-0.5,0.3-0.7,0.2c0.9-0.6,0.5-1.5,1.7-2.7
							c0.1,0.1,0,0.5-0.4,0.8c0,0.7,0.3,1-0.2,1.9c0.3-0.6,0.7-1.2,0.7-1l-0.2-0.4c0.2-0.3,0.4-0.5,0.6-0.8
							c-0.1-0.3-0.8,0.4-0.4-0.4c0.5-0.9,0.6-0.2,0.6-0.4c0.7-1.2,0-0.7,0.9-1.7c-0.1,0.1-0.2,0.4-0.3,0.4c0.7-0.6,1.4-1.9,1.9-1.8
							c0,0.2,0.1,0.3-0.2,0.5v-0.1c-0.4,1,0.5-0.7,0.6-0.2c-0.2-0.1,0.6-1.1,1-1.5H179c0.6-2.1,0.4,0.4,1.5-1.2
							c0.6-1.1-0.4,0.3,0-0.4c0.6-0.6,0.9-0.7,1.7-1.7c0.3-0.2,0.9-0.6,1.2-0.4c0.4-0.7,1.6-1.6,1.6-2.2c-1,0.8-0.6,1.2-1.9,2v-0.5
							c0.7-0.8,1.4-1.9,2-2.4c-0.1,0.1-0.2,0.1-0.2-0.1c0.9-1.2,0.9-1.7,1.9-2.8c0.3,0.1-0.3,0.7-0.6,1.1c0.8-0.5,0.6-0.7,1.7-1.7
							c0.2,0.1-0.7,0.7-0.6,1l1-1.2l0,0c-0.2-0.5,0.9-0.9,1.4-1.7c1.6-1.7,1.4-2.3,2-3.5c0.3-0.2,0.5-0.2,0.4,0
							c-0.5,0.3-0.4,0.3-0.4,0.5c0.5-0.6,1.5-1,1.3-0.5c0.8-1-0.5,0.2,0-0.5l1.2-1.2c-0.3,0-0.8,0.4-0.2-0.4
							c0.5-0.6,0.8-0.8,1.5-1.5c0,0.2,0.5,0-0.1,0.5c0.4-0.3,0.9-0.8,1-1.1c-0.9,0.6,1.1-1.4,0.3-1l0.9-0.6
							c-0.2,0.2-0.1,0.3-0.4,0.5c0.4,0,0.6-0.7,0.8-1c0.3-0.2,1-0.9,1.2-0.8c0.2-0.3,0.8-0.8,1.1-0.8c0.3-0.4-0.1-0.2-0.1-0.4
							l1.3-1.1c0.2,0.1,0.6,0.4,0.5,0.6c0.4-0.6-0.2-0.6,0.5-1.2c-0.2,0.6,1.1-0.7,0.8,0.2c0.6-0.2,1.8-1.2,2.3-1.9
							c0.2-0.6-0.8,0.5-1,0.3c1.7-1.7,1.4-2.4,2.9-3.4l-0.4,0.2c0.8-0.8,0.7-0.7,1-1.3c0,0.5,1.6-0.1,3-1.3c0-0.2-1,0.4-1,0l0.9-0.8
							c0.1,0,0,0.1-0.1,0.2c0.8-0.8,1.9-0.9,1.9-1.4L214,93l-0.5,0.1c0-0.2,1-1,1.1-1.2c0.9-0.9,1.3-1.1,2-1.3
							c-0.3,0-0.9,0.1-0.1-0.6c0.3,0.5,1.8-1.1,1.9-0.8c0.3-0.3,1-0.5,0.9-0.7l0.2,0.3c-0.2-0.5,1-1.3,1.9-2c0.2,0.7,1-0.8,1.7-0.5
							c-0.1-0.5,1.5-1.3,1.5-1.7c0.7-0.5,0.9-0.1,1.1-0.1l0.2-0.4c0.5-0.1,1.9-0.9,2.7-1.3l0.5-0.8h0.4c0.1-0.2,0.7-0.6,0.2-0.5
							l0.4-0.2c-0.2-0.4,0.5-0.5,1.2-1.2c0.2-0.1,0.2,0.1,0.1,0.2c0.4-0.3,0.4,0,0.7,0c-0.4,0.1,1-1.6-0.2-1.1
							c-0.2-0.1,0.4-0.6,0.8-0.8l0.5,0.2l0.3-0.7c0.6-0.4,1-0.4,1.6-0.6c-0.5,0.3-0.8,1.4,0.6,0.5c-0.7,0.5-0.9,0.9-1.3,1.2
							c0.3-0.2,0.5-0.2,0.1,0.2c1-0.7,0.2-0.4,1.3-1.1c0.1,0.3,0.5,0.3,1.5-0.2l-0.8,0.2c0-0.1,0-0.1,0.1-0.2
							c-0.3,0.1-0.4,0.1-0.5,0c0.2-0.1,1-1.1,1.3-1c-1.4,0.1,1.6-1.5,0.8-1.4c0.1-0.2,0.8-0.6,1-0.5c-0.8,0.8,0.9,0,0.9,0.3
							c0.3-0.3-0.8,0.2-0.5-0.2c0.5-0.3,1-0.4,1.4-0.4l-0.2,0.2c0,0,0.2-0.1,0.4-0.2c0.2-0.1,0.5-0.2,0.5-0.2c0-0.2-1,0.2-0.2-0.3
							c0.2,0,1-0.5,1-0.4c-0.2,0.4,0.2,0.6-0.4,1c0.5-0.3,2.2-1.3,1.4-1.2l0.7-0.3c-0.5,0.1-1.8,0.5-0.5-0.3v0.1l0.8-0.7h0.5
							c-0.1-0.1,0-0.2,0.4-0.4c0.1,0,0.5-0.1,0.5,0.1c1-0.5,0.8-0.7,0.9-0.8c0.5-0.3,0.8-0.4,0.6,0c0.8-0.4,2.1-1.1,2.7-1.2
							c0.9-0.6-0.2,0,0.2-0.5c1.2,0.1,3.5-1.4,5.1-2.3c-0.7-0.3,0.4-0.3,0.5-0.9c-0.3,0.3,1.8-0.4,0.4,0.5c0,0,0.2-0.1,0.4-0.2
							c0.2-0.1,0.4-0.2,0.4-0.2c0.4,0,0,0.2-0.3,0.4s-0.6,0.4,0,0.4c1-0.5,1.4-1.3,2.7-1.6c-0.2,0.5,0.9-0.5,0.7,0
							c-0.2,0.2-0.5,0.3-0.9,0.5h0.2c2.3-0.9,0.5-0.7,1.5-1.4c1.3-0.6,1.2-0.2,1.3,0c0.2,0,0.9-0.4,1.2-0.6c-0.7,0.6-1.6,0.4-1.3,0
							c0.8,0.2,2-0.8,2.3-1.2c-2.1,0.4-1.4,0.6-3.4,0.9c-0.2,0.2,0,0.6-1.2,0.9c0.6-0.5-0.1-0.2-0.4-0.2c0.3,0.1-0.7,0.4-1,0.6
							c-0.4,0,0.4-0.8-0.7-0.4v0.6c-0.5,0.1,0-0.4-0.8,0.1c0.4-0.5-0.3-0.3,0.9-1c-1.7,0.2-2.2,1.2-3.2,2c0.1-0.1,0.1-0.2,0.2-0.2
							c-0.2,0.2-0.6,0.5-1,0.6c-0.8,0.3,0.5-0.5,0.2-0.5l-1.2,0.6l0,0c-0.3,0.2-0.6,0.4-0.7,0.3c0.3-0.3,0.4-0.6,0.5-0.8l-1.1,1
							c0.1-0.2-1.2,0.2-0.3-0.3l-1.9,1l-0.3-0.2c-0.4,0.3-0.4,0.3,0.2,0.1c-0.3,0.1-1,0.6-1.6,1c-0.5,0.4-1,0.6-1,0.2
							c-1.3,1-1.9,1.2-3.6,2.3c1.2-1-1.8,0.5-0.4-0.4c-0.9,0.3-0.9,0.8-1.5,1.2c-0.7,0.2-0.6-0.3,0-0.7l-0.7,0.6v-0.1l-0.6,0.5
							c-0.8,0.2-0.3-0.2-1.1,0.2v0.4l-0.6,0.1c0.3,0-0.1,0.3-0.7,0.7V74l-0.6,0.4c0.5-0.5-0.6,0.3-0.5-0.1c-0.6,0.3-0.6,0.3-1.6,1
							l0.3,0.1c-1.2,0.9-0.2-0.2-1.3,0.4L234,76c-0.9,0.3-1.5,0.7-2.1,1.1c-0.5,0.4-1,0.9-1.7,1.1c0.6-0.5,0.3-0.6,0.3-0.5
							c-0.9,0.7-2.5,1.6-3.3,2.5c-0.6-0.1-0.7-0.1-1.8,0.4c-0.7,0.5-0.8,0.6-0.9,0.9c-0.8,0.3-2,1.5-2.1,1.3c0,0.3-0.6,0.4-0.9,0.8
							h-0.1l0.2,0.2c-1.6,0.4-1.9,1.7-3.4,2.2l0.2-0.2l-0.5,0.4c-0.1,0,0-0.2,0-0.4c0,0-0.6,0.4-1.2,0.8c-0.6,0.4-1.2,0.9-1.2,0.9
							l0.6-0.2c-0.5,0.4-0.7,0.9-1.3,1.2c0.7-1-0.8,0.6-1.1,0.5l0.4-0.5c-0.7,0.5-0.7,0.5-0.5,0.7c-0.8,0.8-0.9,0.1-1.6,0.9l0.6-0.4
							c0.3,0,0,0.5-0.4,0.8c-0.1,0-0.5,0.2-0.2-0.1c-0.6,0.6-1.8,1.3-2,1.6c-0.4,0.2-0.4,0-0.3-0.2c-1.3,1.4-0.7,0.5-2,1.9l-0.1-0.1
							l-0.4,0.6l-0.9,0.4l0.4-0.1c-0.5,0.4-0.7,0.7-1.3,1.2l0.1-0.4c-1.3,1.2-1.8,1-2.9,2.3c-0.1,0,0-0.2,0.1-0.3
							c-0.9,1.3-1.1,0.5-2,1.9c0-0.1-0.2-0.1-0.2-0.2l-0.4,0.6l-0.2-0.3l-0.1,0.7l-0.5,0.1l-0.1,0.3c-0.9,0.1-1.5,1.1-2.5,1.5
							l0.4,0.1c-0.7,1.1-1.9,2.1-3.1,3.1c-1.2,1-2.6,2-3.6,3.2l-0.2-0.2l-0.7,1.2c-0.7,0.3,0.1-0.5-0.1-0.4c-0.9,1.1-0.1,0.7-1.2,2
							c-0.7,0.5,0-0.4,0.2-0.7c-0.9,1.2-2.4,3-3.2,3.7c0,0,0,0.1,0.1,0.1c-0.6,0.8-1.6,1.7-2.4,2.6c-0.1-0.1,0.1-0.3,0.2-0.6
							c-0.3,0.3-0.7,0.7-0.8,1l0.1-0.5c-0.6,0.6-1.5,2-1.9,2c0.2,0,0.3,0.2-0.2,0.7c-0.6,0-1.2,1.7-2.2,2.4c0-0.2,0.6-0.9,0.4-0.7
							c-0.5,0.4-0.7,0.9-0.9,1.4v-0.2c0,0-0.4,0.6-0.8,1.2c-0.4,0.6-0.8,1.2-0.8,1.2c-0.6,0-1.6,2.1-1.7,1.8
							c-0.6,0.8,0.7-0.5-0.1,0.5c-0.4,0.1-0.6,0.9-0.8,0.7l0.1-0.1l-0.5,0.7l0.1-0.6c-0.4,0.6-0.5,1.2-0.4,1.4
							c-0.6,0.5-1.1,1.3-1.5,1.5l0.1-0.3c-1.1,1.7-2.6,2.2-3.2,3.8c-0.1,0.1-0.2,0,0-0.2l-0.8,1v-0.4l-1,1.9l-0.1-0.1
							c-0.9,1.1-1.9,2.9-2.9,4.4l0.1-0.3c-0.9,1.7-1.1,1.5-1.8,2.7c0-0.1,0-0.1,0-0.2l-0.7,1.1v-0.3c-0.3,0.9-1.7,2.1-1.2,1.7
							c-0.2,0.5-0.5,1.4-0.4,1.6c-0.7,1.2-0.3,0.2-0.9,0.9c-0.5,0.8-0.4,1.1-1.2,2.2l-0.1-0.1c-0.3,0.6-0.4,0.9-0.9,1.7l0.1-0.3
							c-0.5,1.4-1.2,1.4-1.3,2.6c-0.4,0.5-0.9,1.5-1.1,1.3c-0.7,1.7-1.3,2.9-2.1,4.5c-0.6,0-0.1,0.4-0.9,1.2h0.3
							c-1.1,2.3-3,4.6-4.1,7.1h-0.3v0.6c-1.3,2.7-3.1,6.1-3.9,8.4c-0.2,0.8-0.3,2-0.9,3.1v-0.1c-0.6,2.1-1.4,4.2-2.3,6.4
							c-0.1-0.2-0.2,0-0.2-0.3c0.1,0.6-0.4,1.3-0.6,1.8l0.4-0.5c0,0.7-0.5,1.5-0.8,1.8l-0.1,1.1c0,0.1-0.1,0.1-0.2,0.1l0.1,0.2
							l-0.5,0.4c0,0.3-0.4,1.6-0.2,2.1c-0.1,0.1-0.5,1-0.3,0.2l-1.2,3.7l0.3-0.5c0.3,0,0.1,1.2-0.2,1.7c0-0.8-0.3-0.2-0.6,0.1
							c0,0.5,0.3-0.4,0.4-0.1c0,0.7-0.4,2-0.6,2.3V200c-0.2,0.9-0.7,1.2-0.9,2c0,0.8-0.3,1.3,0.1,1.3c-0.2,1.1-0.4,0.3-0.5,0.7
							c0.1,0.6-0.5,2.1-0.7,2.2c0.5,0.8-1,2.9-0.5,3.3c0,0-0.1,0.2-0.3,0.4c-0.1,0.2-0.2,0.4-0.2,0.4c0.1,0.1,0.4,0.3,0.3,1.1
							c-0.3,0.7-0.5,0.4-0.7,0.6l0.4,0.6c-0.7,2-1.3,4.3-1.8,6.7c-0.5,2.4-0.9,4.9-1.6,7.1c-0.2,2-0.3,4.6-0.7,6.9V233l-0.5,2.3
							l0.5-1.7c0,0.5,0,0.9,0,1.4c-0.6,2.5-1.1,5.9-1.2,9.1c0.4,2.1-0.6,1.3-0.3,3.3c0-0.2-0.1-0.2-0.2-0.4c0.1,2.1,0.1,3.3,0.4,5.4
							c-0.6-0.3-0.1,1.4-0.4,1.2l0.2,0.2c-0.2,0.5-0.2,1.6-0.4,1.4l0.3,0.9l-0.3,0.1c0,1.2,0.1,3.9-0.4,4.6c0.1,0.8,0.1,1.7,0.2,2.6
							c0.1,0.9,0.1,2,0.1,3c0.1,2.1,0.1,4.3,0.1,6.2c0.2,0.5,0.3,1.7,0.4,2.5l-0.2,1c0.2,0.9,0.6,1.8,0.5,2.7c0,0-0.1,0-0.1-0.1
							c0.1,0.9,0,1.8,0.4,2.6c0.1,1,0,2-0.3,1.7c0.5,0,0.2,2.1,0.2,2.1s0.1,0.8,0.2,2.2c0.1,0.7,0.1,1.6,0.2,2.6
							c0.1,1,0.3,2.1,0.4,3.4c0.7,5,1.9,11.8,4,18.8c1.1,3.5,2.3,7.1,3.9,10.5c0.7,1.7,1.6,3.3,2.4,5c0.4,0.8,0.9,1.6,1.3,2.3
							c0.4,0.8,0.9,1.5,1.4,2.2c3.8,5.7,8,9.8,10.8,11.5c0.5,0.1,1.5,0.8,1.3,0.3c0.7,0.6,0.7,1.2,1,1.1c-0.8-1,0.7-0.2,0-1.3
							l0.6,0.5c0.2,0-0.9-0.6-0.5-0.7l-0.5,0.2c-0.4-0.5-0.6-0.8-0.6-1.1c-0.5-0.3-1.3,0-2-1.3l0.3,0.3c-0.8-0.8-0.3-0.7-0.4-0.9
							l0.2,0.2l-0.5-0.9c0.4,0.6,1.5,1.3,1,0.8c-0.8-1.1,0.2,0.3-0.6-0.4c-0.4-0.4-0.1-0.5,0-0.6l-0.8-0.8c0.2-0.1,0.5,0.6,0.4,0.1
							c0,0-0.3-0.2-0.6-0.4c-0.3-0.2-0.5-0.5-0.5-0.5c0.3-0.6-1.2-1-1.2-1.9c0.7,0.7,0.1-0.2,0.3-0.2c0,0-0.4-0.5-0.8-0.9
							c-0.4-0.5-0.7-1-0.7-1c-0.1-0.2,0.5,0.4,0.3,0.1c-0.1-0.5-0.5-0.5-0.7-0.7c0-0.3-1.1-1.5-0.7-1.6c-0.7-1.5-0.8-0.3-1.4-1.8
							c0.1-0.3,0.7,1,0.5,0.3l-0.9-1.3c0.2,0.1,0.5,0.1,0.7,0.6c-2-3.9-2-6.4-3.8-9.9c0-0.6,0.3,0.3,0.6,0.6c-1.5-2.4-1-3.9-1.8-6.1
							h-0.2c-0.5-3.4-2-7.1-2.6-10.9v0.5c-0.3-0.5-0.5-1.3-0.8-1.9c0.1-0.1,0.6,0.3,0.2-0.7c0,0.2,0,0.7-0.1,0.6
							c-0.2-3.3-1.6-10-1.8-15.5c-0.2-1.8-0.5-3.7-0.6-5.5c-0.2-1.9-0.2-3.8-0.3-5.7c-0.3-3.8-0.2-7.6-0.4-11.1
							c0,1.1-0.5,0.6-0.4-0.2c0.9-2.3-0.1-3.9,0.5-6.2c-0.1-1,0-2.1,0-3.1s0.2-2,0.3-2.9c0.2-1.9,0.3-3.8,0.1-5.8l0.3-0.1
							c0.1-0.6,0-0.7,0-1.3h0.1c0.2-1.4,0.1-3.2,0.3-4l-0.3-0.1c0.1-0.9,0.3-0.4,0.2-1.3h0.1l-0.2-1c0.2,0.1,0.3-0.5,0.4-1.2
							s0.1-1.5,0.3-1.8c0.1-1.1,0.1-3.2,0.5-4.9c0.3-0.3,0.6-2.3,0.9-3.6c0.2-1.3,0.4-2.8,0.7-4.4c0.1-0.8,0.3-1.6,0.4-2.5
							c0.2-0.8,0.4-1.6,0.6-2.4H138l0.2-0.8c0.1,0,0.1-0.1,0.1,0.1c0.5-0.6,0.3-1.9,0.7-2.6c-0.4,0.4-0.2,0.6-0.3,1
							c-0.3,0.6-0.5-0.1-0.1-1h0.1v-0.7c0.3,0,0.5-0.6,0.8-0.6c0.2-1.4,0.4-2.5,0.6-3.7s0.4-2.4,0.9-3.7c0.2,0.4,0.5-2,0.8-1.3
							c0.3-1.7-0.5,0.2-0.6-0.7c0.1-0.5,0.1-1,0.3-1c0,0.3,0.4-0.3,0.3,0.1l0.3-1.1c0.1-0.1,0.1,0.2,0.1,0.3c0.4-2.3,1.5-3.9,1.9-6
							c-0.1-0.2-0.3,0.8-0.4,0.6c0.3-2.2,0.8-1.7,1.3-3.7l0.1,0.5c0.1-0.7-0.1-1,0.5-1.9c0.3-0.1-0.1,0.9-0.1,1.4
							c0.3-0.7,0.8-2.4,0.4-2c0.2-0.9,0.5-1.1,0.8-1.5c-0.1,0-0.5,0.7-0.4,0.2c0.6-1.1,1.1-2.8,1.7-4.1c0.1,0,0.2,0,0.2,0.1
							C148.3,184.4,148.8,184.7,149.4,183.2z"/>
						<path d="M188.8,117.6l-0.4,0.4c0,0,0.1,0.1,0,0.4L188.8,117.6z"/>
						<path d="M171.3,139c0,0.1,0,0.1-0.1,0.2C171.3,139.1,171.3,139.1,171.3,139z"/>
						<path d="M167.9,144.9c0.2-0.4-0.1-0.1-0.3,0C167.7,145,167.7,145,167.9,144.9z"/>
						<path d="M199.4,105.8c-0.1,0.1-0.1,0.2,0,0.2C199.4,105.9,199.4,105.8,199.4,105.8z"/>
						<path d="M234,79.5c-0.1,0-0.1,0-0.2,0.1C233.9,79.6,234,79.5,234,79.5z"/>
						<path d="M231.8,80.4c-0.1,0.1-0.2,0.2-0.4,0.3C231.6,80.6,231.7,80.5,231.8,80.4z"/>
						<path d="M191.9,113.3c-0.1,0.1-0.2,0.3-0.2,0.4C191.8,113.5,191.9,113.4,191.9,113.3z"/>
						<path d="M231,81.1l-0.5,0.3c0,0,0,0,0,0.1L231,81.1z"/>
						<path d="M234.7,79.1c-0.2,0.1-0.5,0.3-0.7,0.4C234.3,79.4,234.5,79.3,234.7,79.1z"/>
						<path d="M211.2,95L211.2,95C210.9,95.5,211.1,95.2,211.2,95z"/>
						<path d="M229,82.9L229,82.9l-0.2,0.2L229,82.9z"/>
						<path d="M237,77.9c-0.1,0.1-0.2,0.1-0.2,0.2C236.9,78.1,237,78,237,77.9C237.1,77.9,237,77.9,237,77.9z"/>
						<path d="M218.7,89.8c0.1-0.2,0.1-0.3,0.1-0.3C218.6,89.6,218.5,89.7,218.7,89.8z"/>
					</g>
				</g>
			</g>
		</g>
	</g>
	<g>
		<g>
			<g>
				<g>
					<g>
						<path d="M225.4,81.8v-0.1C225.4,81.7,225.4,81.7,225.4,81.8z"/>
						<path d="M203.7,98.2l0.2-0.3C203.8,98.1,203.7,98.1,203.7,98.2z"/>
						<path d="M239.2,73.1L239.2,73.1c0.2-0.1,0.5-0.3,1-0.5L239.2,73.1z"/>
						<path d="M164.7,141.2l0.2-0.3C164.8,141,164.8,141.1,164.7,141.2z"/>
						<path d="M186.7,114.6c0,0.1-0.1,0.3-0.2,0.4C186.6,114.9,186.7,114.7,186.7,114.6z"/>
						<path d="M247.9,71.1l-0.5,0.1C247.5,71.2,247.7,71.2,247.9,71.1z"/>
						<path d="M262,62.9L262,62.9L262,62.9z"/>
						<path d="M255.9,65c-0.1,0.1-0.2,0.2-0.4,0.3C255.7,65.2,256,65.1,255.9,65z"/>
						<path d="M255.4,65.5l0.2-0.1C255.5,65.4,255.4,65.4,255.4,65.5z"/>
						<path d="M149.7,340.6c0.3,0.4,0.6,0.7,1,0.9L149.7,340.6z"/>
						<path d="M139.7,187.6v-0.1C139.6,187.6,139.6,187.6,139.7,187.6z"/>
						<path d="M151.4,340.2l0.2,0.3C151.5,340.3,151.4,340.2,151.4,340.2z"/>
						<path d="M240.8,76c-0.3,0.4-1.2,0.7-1.1,0.9C240.1,76.6,240.7,76.3,240.8,76z"/>
						<path d="M142.4,200.4l-0.1,0.3C142.4,200.6,142.4,200.5,142.4,200.4z"/>
						<path d="M151.4,340.2l-0.2-0.3v0.1C151.3,340,151.3,340.1,151.4,340.2z"/>
						<path d="M125.8,240.9L125.8,240.9c0-0.1,0-0.1,0-0.1V240.9z"/>
						<path d="M125.2,243.8c0-0.2,0-0.4,0-0.6C125.2,243.5,125.2,243.7,125.2,243.8z"/>
						<path d="M150.7,341.6l0.6,0.5C151,341.9,150.8,341.7,150.7,341.6z"/>
						<path d="M125.4,275.5c0-0.1,0-0.2,0-0.3C125.4,275.3,125.4,275.4,125.4,275.5z"/>
						<path d="M188.3,113.1c0.1,0,0.1-0.1,0.2-0.2C188.5,112.8,188.4,112.8,188.3,113.1z"/>
						<path d="M178.1,132.6L178.1,132.6L178.1,132.6z"/>
						<path d="M178.6,131.5c-0.2,0.3-0.4,0.7-0.5,1C178.3,132.3,178.5,132,178.6,131.5z"/>
						<path d="M176.6,134.5C176.6,134.4,176.6,134.4,176.6,134.5C176.6,134.4,176.6,134.4,176.6,134.5z"/>
						<path d="M191.5,117.3L191.5,117.3L191.5,117.3L191.5,117.3z"/>
						<path d="M188.5,120.6c-0.1,0-0.2,0.1-0.3,0.2C188.3,120.8,188.4,120.7,188.5,120.6z"/>
						<path d="M170.4,143.8L170.4,143.8L170.4,143.8L170.4,143.8z"/>
						<path d="M150.7,181.3c0.7-2,1.8-4.2,2.7-6.4c1-2.2,2-4.4,3-6.3c0.1-1,0.7-2.2,1.3-3.4l0.5,0.1l0.4-1.1
							c0.4-0.3-0.3,0.8,0.2,0.2l-0.1-0.5c0.2,0,1.5-2.5,0.9-0.6l2.1-3.8c0.5-0.8-0.1-0.7,0.6-1.5c0.2-0.1-0.1,0.4,0.1,0.4
							c2-2.5,1.1-3.6,2.9-6.1l-0.1,0.3c0.2-0.5,0.7-1.3,0.6-1.4c-0.6,0,0,0.6-0.8,1.2c-0.3-0.3,0.4-1.1,0.1-1.2
							c0.5-0.5,0.5-1,0.8-1.5c0.8-0.7,1.5-2.1,2.2-2.5c0.2-0.5,0.1-1.2,0.8-2.1c0.7-0.5,0.2,0.3,0.9-0.5l-0.1-0.3
							c0.5-0.7,0.5-0.5,0.6-0.5c0.5-0.8,0.2-0.8,1-1.7l-0.2,0.7c0.4-0.8,0.6-1,1.4-2c0.1,0.1-0.2,0.5-0.4,0.8c0.7-0.3,0.5-1,0.7-1.3
							c-0.1,0-0.7,0.7-0.6,0.2c0.4-0.5,0.5-1.2,1-1.4l-0.2,0.7c0.6-1.1,0.2-0.7,1.1-1.8c0,0.1,0,0.1,0.1,0.1
							c0.3-0.9,1.2-1.7,2.1-2.7l-0.1,0.2c0.3-0.5,0.3-0.9,0.5-1.1c-0.6,0.5-0.5,0.3-0.7,0.2c0.9-0.6,0.6-1.5,1.8-2.7
							c0.1,0.1,0,0.5-0.4,0.8c0,0.7,0.2,1-0.2,1.9c0.3-0.6,0.7-1.2,0.7-1l-0.2-0.4c0.2-0.3,0.4-0.5,0.6-0.8
							c-0.1-0.3-0.8,0.4-0.4-0.4c0.5-0.9,0.6-0.2,0.6-0.4c0.7-1.2,0-0.7,0.9-1.7c-0.1,0.1-0.2,0.4-0.3,0.4c0.7-0.6,1.4-1.8,2-1.7
							c0,0.2,0.1,0.3-0.2,0.5v-0.1c-0.4,1,0.5-0.7,0.6-0.2c-0.2-0.1,0.7-1.1,1.1-1.5h-0.3c0.6-2.1,0.4,0.5,1.6-1.1
							c0.6-1.1-0.4,0.3,0-0.4c0.6-0.6,1-0.7,1.7-1.7c0.3-0.2,0.9-0.6,1.2-0.5c0.4-0.7,1.6-1.6,1.6-2.1c-1.1,0.8-0.6,1.2-1.9,2v-0.5
							c0.7-0.8,1.5-1.9,2-2.3c-0.1,0.1-0.2,0.1-0.2-0.1c0.9-1.2,1-1.7,2-2.7c0.3,0.1-0.3,0.6-0.7,1.1c0.8-0.5,0.7-0.7,1.7-1.7
							c0.2,0.1-0.7,0.7-0.6,1l1-1.2l0,0c-0.2-0.5,0.8-0.9,1.4-1.7c1.5-1.7,1.4-2.3,2.1-3.5c0.3-0.2,0.5-0.2,0.5,0
							c-0.5,0.3-0.4,0.3-0.4,0.5c0.5-0.6,1.5-0.9,1.3-0.5c0.8-1-0.5,0.2,0-0.5l1.2-1.2c-0.3,0-0.8,0.4-0.2-0.4
							c0.5-0.6,0.8-0.8,1.5-1.5c0,0.2,0.4,0-0.1,0.5c0.4-0.3,0.9-0.8,1-1.1c-0.9,0.6,1.1-1.4,0.3-1l0.9-0.6
							c-0.2,0.2-0.1,0.3-0.4,0.5c0.4,0,0.6-0.7,0.8-1c0.3-0.2,1-0.9,1.2-0.8c0.2-0.3,0.8-0.8,1.1-0.8c0.3-0.4-0.1-0.2-0.1-0.4
							l1.3-1.1c0.2,0.1,0.6,0.4,0.5,0.6c0.4-0.6-0.2-0.6,0.5-1.2c-0.2,0.6,1.1-0.7,0.8,0.2c0.6-0.2,1.7-1.2,2.3-1.9
							c0.2-0.6-0.8,0.5-1,0.3c1.8-1.7,1.3-2.4,2.8-3.5l-0.4,0.2c0.8-0.8,0.7-0.7,1-1.3c0,0.5,1.6-0.1,3-1.3c0-0.2-1,0.4-1,0l0.9-0.8
							c0.1,0,0,0.1-0.1,0.2c0.8-0.8,1.9-0.9,1.9-1.5l1.2-0.3l-0.5,0.1c0-0.2,0.9-1.1,1.1-1.3c0.8-1,1.3-1.1,2-1.3
							c-0.3,0-0.9,0.1-0.2-0.6c0.3,0.5,1.8-1.1,2-0.8c0.3-0.2,1-0.5,0.9-0.7l0.2,0.3c-0.2-0.5,1-1.3,1.8-2.1c0.2,0.7,1-0.8,1.7-0.6
							c-0.1-0.5,1.5-1.3,1.4-1.8c0.7-0.5,0.9-0.1,1.1-0.1l0.2-0.4c0.5-0.1,1.8-0.9,2.7-1.3l0.5-0.8h0.4c0.1-0.2,0.6-0.6,0.2-0.5
							l0.4-0.2c-0.2-0.4,0.5-0.5,1.2-1.2c0.2-0.1,0.2,0.1,0.1,0.2c0.4-0.3,0.4,0,0.7,0c-0.3,0.1,1-1.6-0.2-1.1
							c-0.2-0.1,0.4-0.6,0.8-0.8l0.5,0.2l0.2-0.7c0.6-0.5,1-0.4,1.5-0.7c-0.5,0.3-0.8,1.4,0.6,0.5c-0.7,0.5-0.9,0.9-1.2,1.2
							c0.3-0.2,0.4-0.2,0.1,0.2c1-0.8,0.2-0.4,1.2-1.1c0.1,0.3,0.5,0.3,1.5-0.2l-0.8,0.2c0-0.1,0-0.1,0.1-0.2
							c-0.3,0.1-0.4,0.1-0.5,0c0.2-0.1,1-1.1,1.3-1c-1.4,0.2,1.6-1.5,0.8-1.4c0.1-0.2,0.8-0.6,1-0.5c-0.7,0.8,0.9,0,0.9,0.3
							c0.3-0.3-0.8,0.2-0.5-0.2c0.5-0.3,1-0.4,1.4-0.5l-0.2,0.2l0.9-0.4c0-0.2-0.9,0.2-0.2-0.3c0.2-0.1,0.9-0.6,1-0.4
							c-0.2,0.4,0.2,0.6-0.4,1c0.5-0.3,2.2-1.4,1.3-1.3l0.6-0.4c-0.5,0.1-1.7,0.5-0.5-0.3v0.1c0,0,0.2-0.2,0.4-0.4
							c0.2-0.2,0.4-0.4,0.4-0.4l0.5-0.1c-0.1-0.1,0-0.2,0.4-0.4c0.1,0,0.5-0.1,0.5,0.1c1-0.5,0.8-0.7,0.9-0.8c0.5-0.3,0.8-0.4,0.6,0
							c0.8-0.4,2-1.1,2.6-1.2c0.9-0.7-0.2,0,0.2-0.5c1.2,0.1,3.4-1.6,5-2.5c-0.7-0.3,0.4-0.3,0.5-0.9c-0.3,0.3,1.8-0.4,0.4,0.5
							l0.9-0.5c0.7,0-1.4,0.9-0.3,0.8c1-0.5,1.4-1.3,2.6-1.7c-0.2,0.5,0.8-0.5,0.7,0c-0.2,0.2-0.5,0.4-0.8,0.5h0.2
							c2.2-0.9,0.4-0.7,1.5-1.5c1.3-0.7,1.2-0.2,1.3-0.1c0.2,0,0.9-0.4,1.2-0.7c-0.7,0.6-1.6,0.5-1.3,0.1c0.8,0.1,2-0.9,2.3-1.3
							c-2.1,0.5-1.3,0.6-3.3,1c-0.2,0.2,0,0.6-1.1,1c0.6-0.5-0.1-0.2-0.4-0.1c0.3,0.1-0.7,0.4-1,0.7c-0.4,0,0.4-0.8-0.7-0.3v0.6
							c-0.5,0.1,0-0.4-0.8,0.1c0.4-0.5-0.3-0.3,0.8-1c-1.7,0.3-2.1,1.3-3.2,2c0.1-0.1,0.1-0.2,0.2-0.2c-0.2,0.2-0.6,0.4-0.9,0.6
							c-0.8,0.3,0.5-0.5,0.2-0.5c0,0-0.3,0.1-0.6,0.3c-0.3,0.2-0.6,0.3-0.6,0.3l0,0c-0.3,0.2-0.6,0.4-0.7,0.4
							c0.3-0.3,0.3-0.6,0.5-0.8l-1.1,1c0.1-0.2-1.2,0.3-0.3-0.3l-1.8,1.1l-0.3-0.2c-0.4,0.3-0.4,0.4,0.2,0.1
							c-0.7,0.3-2.5,2.1-2.5,1.3c-1.3,1.1-1.9,1.2-3.5,2.4c1.2-1.1-1.7,0.5-0.4-0.4c-0.9,0.4-0.9,0.8-1.5,1.2
							c-0.7,0.2-0.6-0.2,0-0.8l-0.7,0.6v-0.1l-0.6,0.6c-0.8,0.3-0.3-0.2-1.1,0.2v0.4l-0.6,0.1c0.3,0-0.1,0.3-0.7,0.7v-0.1l-0.6,0.4
							c0.5-0.6-0.6,0.3-0.5-0.1c-0.6,0.3-0.6,0.3-1.5,1l0.3,0.1c-1.2,1-0.2-0.2-1.3,0.4l0.2,0.2c-1.8,0.5-2.4,1.9-3.6,2.3
							c0.6-0.5,0.3-0.6,0.3-0.5c-0.9,0.7-2.4,1.7-3.2,2.6c-0.6-0.1-0.7-0.1-1.8,0.4c-0.7,0.5-0.8,0.6-0.9,0.9
							c-0.8,0.3-2,1.4-2.1,1.3c0,0.3-0.6,0.4-0.9,0.8h-0.1l0.2,0.2c-1.5,0.4-1.8,1.8-3.3,2.3l0.2-0.2l-0.5,0.5c-0.1,0,0-0.2,0-0.4
							l-2.4,1.7l0.6-0.2c-0.5,0.4-0.7,0.8-1.3,1.1c0.7-1-0.8,0.6-1.1,0.5l0.4-0.5c-0.7,0.5-0.7,0.6-0.5,0.7c-0.8,0.8-0.9,0.1-1.5,1
							l0.6-0.5c0.3,0,0,0.5-0.4,0.8c-0.1,0-0.5,0.2-0.2-0.1c-0.6,0.6-1.7,1.4-2,1.7c-0.4,0.2-0.4,0-0.3-0.2c-1.3,1.4-0.7,0.5-2,1.9
							l-0.1-0.1l-0.4,0.5l-0.9,0.4l0.4-0.1c-0.5,0.4-0.7,0.7-1.3,1.1l0.1-0.3c-1.3,1.2-1.8,1.1-2.8,2.4c-0.1,0,0-0.2,0.1-0.3
							c-0.9,1.3-1.1,0.5-2,1.9c0-0.1-0.2-0.1-0.2-0.2l-0.4,0.6l-0.2-0.3l-0.1,0.7l-0.5,0.1l-0.1,0.3c-0.9,0.1-1.5,1.1-2.5,1.5
							l0.4,0.1c-0.7,1.1-1.9,2.1-3.1,3.1s-2.5,2-3.5,3.2l-0.2-0.2l-0.7,1.2c-0.7,0.3,0.1-0.5-0.1-0.4c-0.9,1.1-0.1,0.7-1.2,1.9
							c-0.7,0.5,0.1-0.4,0.3-0.7c-1,1.1-2.4,2.9-3.2,3.6c0,0,0,0.1,0.1,0.1c-0.6,0.8-1.6,1.7-2.3,2.6c-0.1-0.1,0.1-0.3,0.3-0.6
							c-0.3,0.3-0.7,0.6-0.9,1l0.1-0.5c-0.6,0.6-1.6,2-1.9,1.9c0.2,0,0.3,0.2-0.2,0.7c-0.6,0-1.2,1.6-2.1,2.4c0-0.2,0.6-0.9,0.4-0.7
							c-0.5,0.4-0.7,0.9-0.9,1.4v-0.2l-1.6,2.3c-0.6,0-1.6,2.1-1.8,1.7c-0.6,0.8,0.7-0.5-0.1,0.5c-0.4,0.1-0.7,0.9-0.8,0.7l0.1-0.1
							l-0.5,0.7l0.1-0.6c-0.4,0.6-0.6,1.2-0.4,1.4c-0.6,0.5-1.1,1.4-1.5,1.5l0.1-0.3c-1.1,1.7-2.6,2.2-3.2,3.7c-0.1,0.1-0.2,0,0-0.2
							l-0.8,1v-0.4l-1,1.8l-0.1-0.1c-0.4,0.5-1,1.2-1.5,2s-1,1.6-1.5,2.3l0.1-0.3c-0.9,1.7-1.2,1.4-1.8,2.7c0-0.1,0-0.1,0-0.2
							l-0.7,1v-0.3c-0.3,0.9-1.8,2-1.3,1.6c-0.2,0.5-0.6,1.4-0.5,1.6c-0.8,1.1-0.3,0.2-0.9,0.8c-0.5,0.8-0.4,1.1-1.2,2.2l-0.1-0.1
							c-0.3,0.5-0.4,0.9-0.9,1.7l0.1-0.3c-0.5,1.4-1.3,1.3-1.4,2.6c-0.4,0.4-0.9,1.5-1.2,1.3c-0.4,0.8-0.7,1.5-1.1,2.2
							c-0.4,0.7-0.7,1.4-1.1,2.2c-0.5,0-0.2,0.3-0.9,1.1l0.3,0.1c-1.2,2.2-3.1,4.4-4.4,6.9h-0.3v0.6c-1.4,2.6-3.2,6-4.3,8.1
							c-0.2,0.7-0.5,1.9-1,3V177c-0.7,2-1.5,4.1-2.6,6.2c0-0.2-0.2,0-0.2-0.3c0,0.6-0.5,1.3-0.7,1.7l0.4-0.5c0,0.7-0.6,1.5-0.9,1.7
							c0,0,0,0.3-0.1,0.5c0,0.3-0.1,0.5-0.1,0.5c0,0.1-0.1,0.1-0.2,0.1l0.1,0.2l-0.5,0.4c0,0.3-0.5,1.6-0.3,2.1
							c-0.1,0.1-0.6,0.9-0.4,0.2c0,0-0.4,0.9-0.7,1.8c-0.4,0.9-0.7,1.8-0.7,1.8l0.3-0.5c0.3,0,0,1.2-0.3,1.7
							c0.1-0.8-0.3-0.2-0.6,0.1c-0.1,0.5,0.4-0.4,0.4,0c-0.1,0.7-0.4,2-0.7,2.3v-0.4c-0.2,0.9-0.7,1.1-1,2c-0.1,0.8-0.4,1.3,0,1.3
							c-0.3,1.1-0.4,0.3-0.6,0.7c0,0.6-0.6,2.1-0.8,2.2c0.4,0.8-1.2,2.9-0.7,3.2l-0.6,0.8c0.1,0.1,0.4,0.3,0.2,1.1
							c-0.3,0.6-0.5,0.4-0.7,0.6l0.4,0.6c-1.7,3.8-2.7,9.2-4,13.5c-0.3,2-0.5,4.6-1,6.9v-0.3c0,0-0.1,0.6-0.3,1.1
							c-0.1,0.6-0.3,1.1-0.3,1.1s0.1-0.4,0.3-0.8c0.1-0.4,0.3-0.8,0.3-0.8c0,0.5,0,0.9-0.1,1.4c-0.3,1.3-0.7,2.7-1,4.3
							c-0.3,1.6-0.5,3.2-0.5,4.8c0.4,2.1-0.7,1.3-0.4,3.3c0-0.2-0.1-0.2-0.2-0.4c0,2.1,0,3.3,0.2,5.4c-0.6-0.3-0.1,1.4-0.4,1.2
							l0.2,0.2c-0.2,0.5-0.3,1.6-0.5,1.4l0.3,1l-0.3,0.1c-0.1,1.2,0,3.9-0.5,4.6c0.2,1.5,0.2,3.5,0.3,5.6c0,1,0,2.1,0,3.2
							s0.1,2.1,0.1,3.1c0.2,0.5,0.3,1.7,0.4,2.5l-0.2,1c0.2,0.9,0.6,1.8,0.5,2.7c0,0-0.1,0-0.1-0.1c0.1,0.9,0.1,1.8,0.5,2.6
							c0.1,1,0.1,2-0.3,1.7c0.5,0,0.2,2.1,0.2,2.1s0.1,0.8,0.3,2.2c0.1,0.7,0.2,1.6,0.4,2.6s0.4,2.1,0.6,3.4
							c0.9,5,2.4,11.7,4.8,18.5c2.3,6.9,5.5,13.9,8.8,19.6c3.3,5.7,6.7,10.2,9.1,12.4c0.4,0.2,1.2,1.1,1.2,0.5
							c0.6,0.7,0.5,1.3,0.8,1.3c-0.6-1.1,0.7-0.1,0.3-1.2l0.5,0.6c0.2,0-0.8-0.7-0.4-0.8l-0.5,0.1c-0.3-0.5-0.4-0.9-0.4-1.1
							c-0.5-0.4-1.2-0.3-1.8-1.6l0.2,0.3c-0.7-0.9-0.1-0.7-0.2-1l0.1,0.2c0,0-0.1-0.2-0.2-0.5c-0.1-0.2-0.2-0.5-0.2-0.5
							c0.2,0.7,1.2,1.4,0.9,1c-0.6-1.2,0.1,0.4-0.5-0.4c-0.4-0.5-0.1-0.5,0.1-0.6l-0.6-0.9c0.2-0.1,0.4,0.6,0.3,0.1l-0.9-1.1
							c0.3-0.5-1-1.1-0.9-2c0.6,0.8,0.1-0.2,0.3-0.1l-1.3-2.1c-0.1-0.2,0.5,0.5,0.3,0.2c-0.1-0.5-0.5-0.6-0.6-0.8
							c0-0.3-0.9-1.6-0.6-1.7c-0.6-1.6-0.7-0.4-1.3-1.9c0.1-0.3,0.6,1.1,0.5,0.3l-0.8-1.4c0.2,0.1,0.5,0.1,0.7,0.7
							c-0.4-1-0.8-1.9-1-2.8c-0.2-0.9-0.5-1.7-0.7-2.5c-0.2-0.8-0.4-1.6-0.7-2.3c-0.3-0.8-0.6-1.6-1.1-2.5c0-0.6,0.3,0.3,0.6,0.6
							c-1.5-2.5-1-3.9-1.9-6.1h-0.2c-0.3-1.7-0.8-3.5-1.4-5.3s-1.1-3.7-1.6-5.5v0.5c-0.4-0.4-0.6-1.3-0.8-1.8
							c0.1-0.1,0.6,0.3,0.2-0.7c0,0.2,0,0.7-0.1,0.6c-0.4-3.3-2-9.9-2.5-15.3c-1.3-7.1-1.5-15-1.6-22.1c0,1.1-0.5,0.6-0.4-0.2
							c1-2.2-0.2-3.9,0.6-6.1c-0.1-2.1,0.1-4,0.4-5.9c0.2-1.9,0.4-3.8,0.2-5.7h0.3c0.2-0.6,0-0.7,0-1.3h0.1c0.3-1.4,0.2-3.1,0.5-3.9
							l-0.3-0.1c0.1-0.8,0.3-0.4,0.2-1.3h0.1l-0.1-1c0.5,0.2,0.4-2.4,0.7-3c0.1-1.1,0.3-3.2,0.7-4.8c0.3-0.3,0.7-2.3,1.1-3.5
							c0.2-1.3,0.5-2.8,0.9-4.3c0.3-1.6,0.8-3.3,1.2-4.8h-0.3l0.2-0.8c0.1,0,0.1-0.1,0.1,0.1c0.5-0.5,0.4-1.9,0.8-2.5
							c-0.4,0.3-0.2,0.6-0.4,1c-0.3,0.6-0.5-0.1,0-1h0.1v-0.7c0.3,0,0.5-0.5,0.8-0.5c0.7-2.7,0.9-4.6,1.9-7.3c0.2,0.4,0.6-2,0.9-1.3
							c0.4-1.7-0.5,0.1-0.5-0.7c0.2-0.5,0.2-1,0.4-1c0,0.3,0.4-0.3,0.3,0.1l0.3-1.1c0.1-0.1,0.1,0.2,0,0.3c0.5-2.3,1.7-3.8,2.2-5.9
							c-0.1-0.2-0.3,0.8-0.5,0.6c0.4-2.1,1-1.6,1.5-3.6l0.1,0.5c0.1-0.7,0-1,0.6-1.9c0.3-0.1-0.1,0.9-0.2,1.4c0.3-0.7,0.9-2.4,0.4-2
							c0.3-0.8,0.6-1,0.9-1.4c-0.1,0-0.5,0.7-0.4,0.1c0.6-1,1.3-2.7,1.9-4c0.1,0,0.2,0,0.2,0.1C149.6,182.4,150.1,182.8,150.7,181.3
							z"/>
						<path d="M191.9,116.9l-0.4,0.4c0,0,0.1,0.1,0,0.4L191.9,116.9z"/>
						<path d="M174.1,138c0,0.1-0.1,0.1-0.1,0.2C174.1,138.1,174.1,138.1,174.1,138z"/>
						<path d="M170.6,143.8c0.2-0.4-0.1-0.1-0.3,0C170.4,143.9,170.5,143.9,170.6,143.8z"/>
						<path d="M202.4,105.2c-0.1,0.1-0.1,0.2,0,0.2C202.5,105.2,202.5,105.2,202.4,105.2z"/>
						<path d="M236.7,78.5c-0.1,0-0.1,0-0.2,0.1C236.6,78.6,236.6,78.6,236.7,78.5z"/>
						<path d="M234.5,79.5c-0.1,0.1-0.2,0.2-0.4,0.3C234.3,79.7,234.4,79.6,234.5,79.5z"/>
						<path d="M195,112.6c-0.1,0.1-0.2,0.2-0.3,0.4C194.9,112.8,195,112.7,195,112.6z"/>
						<path d="M233.7,80.1l-0.5,0.3c0,0,0,0,0,0.1L233.7,80.1z"/>
						<path d="M237.4,78.1c-0.2,0.1-0.5,0.3-0.7,0.4C237,78.4,237.2,78.3,237.4,78.1z"/>
						<path d="M214.2,94.3C214.2,94.4,214.2,94.4,214.2,94.3C213.9,94.8,214.1,94.6,214.2,94.3z"/>
						<path d="M231.8,82C231.8,82,231.7,82,231.8,82l-0.2,0.2L231.8,82z"/>
						<path d="M239.7,76.8c-0.1,0.1-0.2,0.1-0.2,0.2C239.5,77,239.6,77,239.7,76.8C239.7,76.9,239.7,76.9,239.7,76.8z"/>
						<path d="M221.6,89c0.1-0.2,0.1-0.3,0.1-0.3C221.5,88.8,221.4,88.9,221.6,89z"/>
					</g>
				</g>
			</g>
		</g>
	</g>
	<g>
		<g>
			<g>
				<g>
					<g>
						<path d="M251.5,86.4c0,0,0.1,0,0.1,0.1C251.6,86.4,251.5,86.4,251.5,86.4z"/>
						<path d="M255.7,81.7L255.7,81.7C255.7,81.8,255.7,81.7,255.7,81.7z"/>
						<path d="M249.3,89.4L249.3,89.4c-0.1,0-0.1,0.1-0.2,0.2L249.3,89.4z"/>
						<path d="M265.2,72.8L265.2,72.8C265.2,72.9,265.2,72.9,265.2,72.8z"/>
						<path d="M259.3,77.8c0-0.1,0-0.1,0-0.1C259.3,77.7,259.3,77.7,259.3,77.8z"/>
						<path d="M245.9,89.9h0.2C246,89.9,245.9,89.9,245.9,89.9z"/>
						<path d="M244.9,93.8C244.9,93.8,245,93.8,244.9,93.8C245,93.8,244.9,93.8,244.9,93.8z"/>
						<path d="M246.2,92.7v-0.1V92.7z"/>
						<path d="M246.2,92.5L246.2,92.5C246.2,92.6,246.2,92.5,246.2,92.5z"/>
						<path d="M234.8,56.5c-0.1,0-0.2,0.1-0.3,0.2L234.8,56.5z"/>
						<path d="M274.8,61.3L274.8,61.3L274.8,61.3z"/>
						<path d="M234.5,58.2L234.5,58.2C234.4,58.2,234.5,58.2,234.5,58.2z"/>
						<path d="M246.4,87.8c-0.1-0.2,0.2-0.3,0-0.4C246.4,87.5,246.2,87.6,246.4,87.8z"/>
						<path d="M263.6,64.7L263.6,64.7C263.5,64.7,263.6,64.7,263.6,64.7z"/>
						<path d="M234.5,58.2L234.5,58.2C234.6,58.2,234.6,58.2,234.5,58.2L234.5,58.2z"/>
						<path d="M259.1,57.2L259.1,57.2L259.1,57.2L259.1,57.2z"/>
						<path d="M258.4,56.8h0.1H258.4z"/>
						<path d="M234.4,56.8l-0.2,0.1C234.3,56.9,234.4,56.8,234.4,56.8z"/>
						<path d="M251.1,56.6L251.1,56.6C251.1,56.5,251.1,56.5,251.1,56.6z"/>
						<path d="M258.9,78.1L258.9,78.1C258.9,78.1,258.9,78.2,258.9,78.1z"/>
						<path d="M258.8,71L258.8,71L258.8,71z"/>
						<path d="M258.8,71.4c0.1,0,0.1-0.2,0-0.4C258.7,71.1,258.7,71.2,258.8,71.4z"/>
						<path d="M259.3,70.7L259.3,70.7L259.3,70.7z"/>
						<path d="M255.1,74.5L255.1,74.5L255.1,74.5z"/>
						<path d="M255.9,73.6h0.1C255.9,73.6,255.9,73.6,255.9,73.6z"/>
						<path d="M261,68.4L261,68.4L261,68.4z"/>
						<path d="M262.7,65.2c0.1,0,0.3,0,0.4,0s0.2,0.1,0.1,0.1c0.5,0.1,0.4,0.2,0.5,0.2l-0.6-0.2l0.2,0.1c-0.2-0.1-0.1-0.1-0.3-0.1
							l0.3,0.1C263.1,65.3,263.1,65.4,262.7,65.2L262.7,65.2c0,0,0.4,0.3,0.3,0.2C262.8,65.3,262.9,65.3,262.7,65.2
							c-0.1-0.1,0.1,0.1,0.2,0.3c0,0.3,0,0.7-0.4,0.8v-0.1c0,0.2-0.2,0.3-0.2,0.4c0.4,0.3-0.1-0.3,0.3-0.2c0.3,0.3-0.1,0.4,0.2,0.6
							c-0.2,0-0.2,0.2-0.3,0.4c-0.4,0-0.5,0.3-0.9,0.2c0,0.2,0.2,0.6,0,0.8c-0.4-0.1-0.2-0.3-0.5-0.2l0.1,0.2
							c-0.2,0.1-0.2,0-0.3-0.1c-0.2,0.1,0.1,0.4-0.2,0.5v-0.3c-0.1,0.2-0.2,0.2-0.4,0.4c-0.1-0.1,0-0.2,0.1-0.2
							c-0.4-0.2-0.1,0.3-0.2,0.3c0.1,0.1,0.3,0,0.4,0.2c-0.1,0.1,0,0.5-0.3,0.3v-0.3c-0.1,0.4,0.1,0.3-0.2,0.5c0,0,0-0.1-0.1-0.1
							c0.1,0.4-0.4,0.4-0.6,0.6v-0.1c0,0.2,0.1,0.4,0,0.4c0.2,0,0.3,0.1,0.4,0.2c-0.5-0.1,0.1,0.6-0.4,0.7c-0.1-0.1-0.1-0.3,0-0.3
							c-0.2-0.4-0.4-0.7-0.4-1c0,0.2-0.1,0.4-0.2,0.2l0.2,0.3c-0.1,0.1-0.1,0.1-0.2,0.2c0.1,0.2,0.4,0.2,0.4,0.4
							c-0.1,0.3-0.4-0.2-0.3,0c-0.1,0.3,0.2,0.4-0.1,0.5v-0.1c-0.3,0-0.4,0.5-0.7,0.2c-0.1-0.1-0.1-0.2-0.1-0.2v0.1
							c-0.1-0.4-0.1,0.2-0.3-0.1c0.2,0.2-0.1,0.4-0.2,0.4l0.2,0.2c0.3,1-0.4-0.4-0.7,0c-0.1,0.4,0.1,0,0.2,0.3
							c-0.2,0.1-0.4,0-0.5,0.3c-0.1,0-0.4,0-0.6-0.2c0,0.2-0.5,0.3-0.3,0.6c0.4,0,0-0.5,0.5-0.5l0.2,0.3c-0.2,0.2-0.3,0.5-0.5,0.6
							c0.1,0,0.1,0.1,0.2,0.1c-0.2,0.3,0,0.6-0.3,0.8c-0.2-0.2-0.1-0.3,0-0.4c-0.3,0-0.2,0.2-0.5,0.4c-0.2-0.2,0.2-0.2,0-0.4
							l-0.2,0.4l0,0c0.3,0.3-0.2,0.2-0.3,0.5c-0.4,0.4,0,0.9,0.1,1.3c-0.1,0-0.2-0.1-0.3-0.2c0.2,0,0.1-0.1,0.1-0.2
							c-0.1,0.2-0.6,0-0.7-0.1c-0.1,0.3,0.2,0.1,0.2,0.3l-0.3,0.3c0.2,0.1,0.3,0,0.3,0.3c-0.1,0.2-0.2,0.2-0.3,0.4
							c-0.1-0.1-0.3-0.2-0.2-0.3c-0.1,0-0.3,0.2-0.1,0.4c0.3-0.1-0.1,0.5,0.3,0.5l-0.3,0.1c0,0-0.1-0.1,0-0.2
							c-0.3-0.1-0.1,0.2-0.1,0.3c-0.1,0-0.3,0.2-0.4,0.1c0,0.1-0.2,0.2-0.3,0.2c0,0.1,0.2,0.1,0.2,0.2l-0.3,0.3
							c-0.2-0.1-0.6-0.4-0.6-0.5c0,0.2,0.4,0.4,0.2,0.6c-0.2-0.3-0.4,0.1-0.6-0.3c-0.3,0-0.5,0.3-0.6,0.5c0.1,0.3,0.3-0.1,0.5,0.1
							c-0.3,0.5,0.3,1.1,0,1.3h0.1c0,0.3,0,0.3,0.1,0.5c-0.2-0.3-1-0.3-1.2,0.1c0.1,0.1,0.4,0,0.6,0.2l-0.1,0.3l-0.1-0.1
							c0,0.3-0.7,0.1-0.4,0.4l-0.6-0.1h0.2c0.1,0.1,0,0.4,0,0.5c0,0.4-0.2,0.4-0.5,0.4c0.2,0,0.5,0.1,0.4,0.3
							c-0.5-0.3-0.5,0.3-0.7,0.1c0,0.1-0.3,0.1-0.1,0.3l-0.3-0.2c0.4,0.3,0.2,0.6,0.1,0.9c-0.5-0.4-0.1,0.3-0.7,0.1
							c0.4,0.3-0.1,0.5,0.2,0.8c-0.1,0.2-0.5-0.1-0.6-0.1l0.1,0.2c-0.2,0-0.5,0.3-0.7,0.4l0.2,0.4h-0.2c0.1,0.1,0,0.3,0.2,0.3
							l-0.1,0.1c0.4,0.2,0,0.2,0.1,0.5c-0.1,0-0.2-0.1-0.2-0.1c-0.1,0.1-0.2-0.1-0.4-0.1c0.1,0,0.5,0.8,0.8,0.6
							c0.2,0.1,0.2,0.3,0.1,0.4l-0.4-0.1l0.3,0.3c0,0.2-0.3,0.1-0.4,0.2c0.1-0.1-0.5-0.7-0.7-0.3c0.1-0.2-0.1-0.4-0.1-0.5
							c-0.1,0.1-0.1,0.1-0.2-0.1c0,0.3,0.2,0.2,0.1,0.5c-0.3-0.2-0.5-0.2-0.7,0h0.3l0.1,0.1c0.1,0,0.1,0,0.3,0c0,0,0.2,0.5,0,0.5
							c0.6,0,0.1,0.7,0.5,0.7c0.1,0.1,0,0.3-0.2,0.2c-0.1-0.3-0.5,0-0.7-0.2c0,0.1,0.3,0,0.4,0.1c0,0.1-0.3,0.1-0.4,0.2V89l-0.3,0.1
							c0.1,0.1,0.4-0.1,0.4,0.2c-0.1,0-0.1,0.2-0.2,0.2c-0.2-0.2-0.5-0.3-0.5-0.5c0,0.1-0.2,0.6,0.2,0.6l-0.1,0.2
							c0.2,0,0.6-0.2,0.5,0.2h-0.1l0.1,0.3H246c0.1,0,0.1,0.1,0.1,0.2c-0.1,0-0.2,0-0.3,0c-0.1,0.3,0.1,0.3,0.2,0.4
							c0,0.1-0.1,0.2-0.3,0c-0.1,0.2-0.2,0.5-0.5,0.6c0,0.3,0.1,0,0.2,0.2c-0.7-0.1-0.6,0.7-0.7,1.2c0.6,0.1,0,0.1,0.4,0.4
							c-0.1-0.2-0.6,0.2-0.5-0.2v0.2c-0.3,0-0.1-0.5-0.5-0.4c-0.1,0.3,0.4,0.7,0.1,0.9c-0.3-0.3,0,0.3-0.3,0c-0.1-0.1,0-0.2,0-0.3
							h-0.1c-0.3,0.5,0.4,0.3,0.5,0.7c-0.1,0.3-0.4,0.1-0.6,0.1c-0.1,0-0.1,0.2-0.1,0.3c-0.1-0.3,0.4-0.3,0.6-0.1
							c-0.5,0-0.2,0.5-0.1,0.6c0.6-0.3,0.2-0.3,0.8-0.6c-0.1-0.1-0.5-0.3-0.2-0.5c0.1,0.2,0.2,0.1,0.3,0.1c-0.2,0,0-0.2-0.1-0.3
							c0.2,0,0.4,0.4,0.6,0.1l-0.5-0.3c0.1-0.1,0.3,0.2,0.3-0.1c0.2,0.2,0.4,0.1,0.4,0.5c0.6-0.2,0-0.6-0.1-1l0.1,0.1
							c-0.1-0.1,0-0.2,0-0.3c0.2-0.1,0.2,0.2,0.3,0.3l0.1-0.3l0,0c0-0.1,0-0.2,0.1-0.2c0.1,0.2,0.3,0.3,0.4,0.4l-0.2-0.5
							c0.1,0.1,0.4-0.1,0.4,0.1l0.1-0.5l0.3,0.1c0-0.1-0.1-0.2-0.2-0.1c0.1-0.1-0.3-1,0.4-0.6c-0.1-0.5,0.1-0.6,0.1-1.1
							c0.1,0.5,0.6-0.2,0.5,0.2c0.2-0.1-0.1-0.3-0.1-0.5c0.2-0.1,0.5,0.2,0.5,0.4l-0.1-0.3h0.1l-0.1-0.3c0.3-0.1,0.3,0.1,0.5,0
							l-0.3-0.2h0.2c-0.2,0-0.2-0.2-0.1-0.3h0.1v-0.2c0.1,0.2,0.1-0.1,0.3,0.1c0.1-0.1,0.1-0.1,0.2-0.4l-0.2-0.1
							c0-0.4,0.3,0.1,0.4-0.1l-0.2-0.1c0.6-0.1,0.1-0.7,0.5-0.8c0,0.2,0.2,0.3,0.2,0.2c0-0.3,0.3-0.6,0.2-1c0.4,0.1,0.5,0.1,0.8,0
							c0.1-0.2,0.1-0.2-0.1-0.4c0.2-0.1,0.2-0.5,0.5-0.4c-0.2-0.1,0.1-0.1,0-0.3h0.1l-0.2-0.1c0.7,0,0-0.7,0.6-0.7v0.1V85
							c0.1,0,0.1,0.1,0.3,0.2l0.4-0.5h-0.2c0.1-0.1-0.1-0.3,0.1-0.4c0.2,0.4,0.1-0.2,0.4-0.1v0.2c0.1-0.2,0.1-0.2-0.1-0.3
							c0.1-0.3,0.5,0.1,0.4-0.2L253,84c-0.2,0-0.3-0.3-0.2-0.3c0,0,0.2,0,0.2,0.1c0-0.2,0.3-0.4,0.3-0.5c0.1,0,0.3,0.1,0.3,0.2
							c0.1-0.5,0.1-0.1,0.2-0.6l0.1,0.1l-0.1-0.2h0.4H254c0.1-0.1,0-0.3,0.2-0.3l0.1,0.2c0.1-0.4,0.6-0.2,0.5-0.6l0.1,0.1
							c-0.1-0.5,0.5,0,0.3-0.5c0,0.1,0.1,0.1,0.2,0.1v-0.2l0.2,0.2l-0.3-0.4l0.3,0.1l-0.1-0.1c0.5,0.2,0.4-0.2,0.8-0.2L256,81
							c-0.2-0.9,1.2-0.8,1.4-1.6l0.2,0.2l-0.1-0.4c0.3,0,0.1,0.2,0.3,0.3c0.1-0.3-0.2-0.4-0.1-0.7c0.3,0,0.1,0.2,0.1,0.3
							c0.1-0.4,0.3-0.8,0.6-0.9l-0.1-0.1c0.1-0.3,0.3-0.4,0.5-0.6c0.1,0.1,0.1,0.2,0,0.2c0.1-0.1,0.2-0.1,0.2-0.2l0.1,0.2
							c0.2-0.1,0.3-0.5,0.5-0.4c-0.1-0.1-0.3-0.2-0.1-0.3c0.4,0.2,0.2-0.5,0.5-0.5c0.1,0.1-0.1,0.3,0,0.2c0.2,0,0.1-0.2,0.1-0.4
							l0.1,0.1l0.3-0.6c0.4,0.2,0.4-0.5,0.6-0.2c0.2-0.1-0.3,0-0.1-0.2c0.2,0.1,0.1-0.2,0.3,0l0,0l0.1-0.2l0.1,0.3
							c0.1-0.2,0-0.4-0.2-0.6c0.2,0,0.3-0.3,0.5-0.1v0.1c0.2-0.4,1.1,0,1-0.5l0.1,0.1l0.2-0.2l0.1,0.2l0.1-0.5l0.1,0.1
							c0.3-0.2,0.6-0.5,0.8-0.8v0.1c0.2-0.5,0.4-0.2,0.5-0.5V73l0.2-0.2v0.1c0-0.4,0.7-0.1,0.4-0.2c0-0.2,0-0.4,0-0.6
							c0.2-0.2,0.2,0.1,0.4,0.1c0.2-0.1,0-0.3,0.4-0.4l0.1,0.1c0.1-0.1,0.1-0.2,0.2-0.4v0.1c0-0.2,0.2-0.2,0.3-0.2
							c0.1,0,0.1,0,0.2-0.4c0.3-0.1,0.6-0.4,0.8-0.2c0.4-0.6,0.9-1,1.3-1.5c0.5,0.2,0.1-0.1,0.7-0.2l-0.3-0.1c0.4-0.3,1-0.6,1.6-0.9
							c0.6-0.3,1.3-0.6,1.7-1h0.4l-0.2-0.2c0.1-0.1,0.3-0.2,0.5-0.3l0.2-0.3c0.1-0.2,0.3-0.4,0.4-0.5c0.2-0.4,0.5-0.7,0.6-1
							c-0.1-0.2-0.3-0.4-0.1-0.7l0,0c-0.1-0.3,0-0.7,0-1.5c0.1,0,0.2-0.1,0.3,0c-0.3-0.1-0.1-0.4-0.1-0.6l-0.1,0.2
							c-0.3-0.1-0.2-0.5,0-0.6l-0.4-0.2c0,0,0-0.1,0.1-0.1h-0.2l0.3-0.3c-0.1,0-0.4-0.3-0.8-0.3c0.1-0.1,0-0.3,0.2-0.2l-0.6-0.8v0.2
							c-0.3,0.1-0.6,0-0.6-0.1c0.4,0,0.4-0.2,0.5-0.3c-0.3,0-0.1,0.2-0.4,0.2s-0.7-0.1-0.6-0.2h0.2c-0.3,0,0.1-0.4-0.1-0.5
							c-0.4,0-0.3-0.2-0.8,0.2c-0.4-0.1,0.2-0.3,0.2-0.3c-0.4,0.1-0.6-0.2-0.5-0.4c-0.8,0.5-0.7-0.5-1.4-0.1V58
							c-0.1,0.1-0.5,0.4-0.8,0.4c-0.1-0.2,0.2-0.4,0.2-0.6l-0.7,0.5c-0.1-0.1-0.2-0.1-0.3-0.1c-0.7-0.3-1.6-0.4-2.6-0.5
							c-0.9-0.1-1.9-0.2-2.8-0.5c-0.5,0.1-1.1,0.3-1.6,0.2l0.1-0.1l-0.5-0.2l0.4,0.3c-0.1,0.1-0.2,0.2-0.3,0.1
							c-0.6-0.3-1.4-0.6-2.1-0.4c-0.5,0.6-0.3-0.6-0.8-0.2c0-0.1,0.1-0.1,0.1-0.2c-0.5,0.2-0.8,0.3-1.3,0.6c0.1-0.6-0.3,0-0.3-0.3
							l-0.1,0.2c-0.1-0.2-0.4-0.2-0.3-0.4l-0.2,0.3v-0.3c-0.3,0-0.9,0.1-1-0.4c-0.7,0.3-1.9,0.1-2.7,0c-0.1,0.2-0.4,0.2-0.6,0.2
							l-0.2-0.3c-0.2,0.1-0.5,0.4-0.6,0.2v-0.1c-0.2,0-0.4-0.1-0.6,0.1c-0.2,0-0.4-0.2-0.4-0.5c-0.1,0.5-0.5-0.1-0.5-0.1
							s-11.8-2.1-14.9,0.4c-0.1,0.2-0.4,0.4-0.3,0.7c-0.2,0.1-0.3-0.4-0.3-0.1c0.3,0.2-0.1,0.6,0.1,1h-0.2c0,0.2,0.3-0.2,0.2,0.1
							l0.1-0.5c0.1,0.1,0.2,0.2,0.2,0.3c0.1-0.2,0.3-0.8,0.6-0.5h-0.1c0.3,0,0.1,0.3,0.2,0.4h-0.1l0.2,0.3c-0.2-0.2-0.5,0.2-0.3,0.2
							c0.3,0.2-0.1-0.1,0.2-0.2c0.1,0,0.1,0.2,0.1,0.4h0.3c0,0.2-0.2,0-0.1,0.2l0.3-0.2c0,0.6,0.4-0.2,0.5,0.3c-0.2,0.1,0,0.2,0,0.4
							h0.6c0,0.1-0.2,0.2-0.1,0.1c0.1,0.2,0.2-0.1,0.2-0.1c0,0.2,0.4,0,0.4,0.4c0.4,0.3,0.2-0.4,0.6-0.2c0,0.2-0.3,0-0.1,0.3
							l0.4-0.1c0,0.1-0.1,0.4-0.2,0.3c1,0.4,1.5,1.6,2.4,1.3c0.1,0.3-0.1,0.2-0.2,0.3c0.7-0.3,0.9,0.6,1.5,0.7v-0.2
							c0.8,0.7,1.8,0.4,2.7,0.7l-0.1-0.2c0.1-0.2,0.3-0.2,0.5-0.3c0,0.1-0.1,0.5,0.1,0.4c0-0.1-0.2-0.2-0.1-0.3
							c0.7,0.6,2.4,0.6,3.7,1c1.8,0,3.6,0.5,5.3,0.5c-0.3,0-0.1-0.5,0.1-0.4c0.5,0.9,0.9-0.1,1.4,0.6c1-0.2,1.9,0.6,2.8,0v0.3
							c0.1,0.1,0.2,0,0.3-0.1v0.1c0.3,0.1,0.8-0.1,1,0v-0.3c0.2,0,0.1,0.2,0.3,0.1v0.1l0.3-0.3c-0.1,0.5,0.6,0.1,0.7,0.3
							c0.3-0.1,0.8-0.3,1.2-0.1c0,0.1,0.2,0.2,0.3,0.3c0.1,0,0.2,0.1,0.3,0.1h0.1l0,0c0-0.1,0.2-0.1,0.2,0l0.2-0.3l0,0
							c0,0.1-0.1,0.1-0.1,0.1c-0.2,0.3,0,0.1,0,0.1s0,0,0,0.1c0.2-0.2,0.1-0.1,0.1-0.1l0,0c0.1-0.1,0.2-0.3,0.3-0.3l0,0l-0.1,0.1
							l0.2-0.2c-0.2,0.2-0.3,0.4-0.5,0.6c0.1-0.1,0.7-0.5,0.6-0.3c-0.4,0.3,0.2-0.1-0.5,0.4c0.3-0.2,0.6-0.4,1.1-0.7
							c0,0,0.2-0.1,0,0.1c-0.2,0.1-0.4,0.2-0.5,0.3h0.1c-0.1,0-0.2,0.1-0.2,0.1c0.6-0.2-0.5,0.3,0.1,0.1c0.3-0.1,0.1-0.1,0.4-0.2
							c0.8-0.2-0.6,0.3,0,0.1l-0.5,0.2c0.4-0.1,0.8-0.2,0.4-0.1c-0.4,0.1-0.5,0.1-0.8,0.2c0,0,0.2,0,0.7-0.2c0.2,0-0.3,0.1-0.5,0.2
							c0.2,0,0.4-0.1,0.7-0.2c-0.3,0.1-0.4,0.2-0.4,0.2c-0.1,0-0.4,0-0.5,0.1C263.9,65,262.5,65.2,262.7,65.2z"/>
						<path d="M255,74.5l0.1-0.1c0,0-0.1-0.1-0.1-0.2V74.5z"/>
						<path d="M259.9,69.8C259.9,69.7,259.9,69.7,259.9,69.8C259.9,69.7,259.9,69.7,259.9,69.8z"/>
						<path d="M260.8,68.2c0,0.1,0.1,0.1,0.2,0.1C261,68.3,260.9,68.3,260.8,68.2z"/>
						<path d="M253.1,78c0,0,0-0.1-0.1-0.1C253,78,253.1,78,253.1,78z"/>
						<path d="M247,86.8L247,86.8L247,86.8z"/>
						<path d="M247.7,86.5v-0.1C247.7,86.4,247.7,86.4,247.7,86.5z"/>
						<path d="M254.7,76v-0.1C254.6,75.9,254.6,75.9,254.7,76z"/>
						<path d="M247.7,86.2l0.1-0.1l0,0L247.7,86.2z"/>
						<path d="M246.9,86.9l0.1-0.1C246.9,86.8,246.8,86.8,246.9,86.9z"/>
						<path d="M251.1,81.4L251.1,81.4C251,81.2,251,81.3,251.1,81.4z"/>
						<polygon points="247.6,85.4 247.6,85.4 247.6,85.3 						"/>
						<path d="M246.4,87.4C246.5,87.4,246.5,87.4,246.4,87.4C246.4,87.3,246.4,87.4,246.4,87.4L246.4,87.4z"/>
						<path d="M249.4,83c0.1,0.1,0.1,0.1,0.2,0.2C249.6,83.1,249.6,83,249.4,83z"/>
					</g>
				</g>
			</g>
		</g>
	</g>
</g>
</svg>
